<svg width="50" height="50" viewBox="0 0 50 50" fill="none" xmlns="http://www.w3.org/2000/svg">
<g clip-path="url(#clip0_219_1494)">
<path d="M12.8835 21.9985C12.8835 21.594 12.5556 21.2661 12.1511 21.2661C11.7466 21.2661 11.4187 21.594 11.4187 21.9985C11.4187 22.403 11.7466 22.7309 12.1511 22.7309C12.5556 22.7309 12.8835 22.403 12.8835 21.9985Z" fill="#0D734C"/>
<path d="M37.1165 21.9985C37.1165 22.403 37.4444 22.7309 37.8489 22.7309C38.2534 22.7309 38.5813 22.403 38.5813 21.9985C38.5813 21.594 38.2534 21.2661 37.8489 21.2661C37.4444 21.2661 37.1165 21.594 37.1165 21.9985Z" fill="#0D734C"/>
<path d="M43.2009 24.6389V23.5944C43.2009 23.19 42.873 22.862 42.4685 22.862C42.0639 22.862 41.736 23.19 41.736 23.5944V25.1047C41.736 25.1182 41.7382 25.1312 41.739 25.1445C41.7375 25.1637 41.736 25.1828 41.736 25.2024V27.6369C40.5628 27.0579 39.2433 26.7319 37.8488 26.7319C33.815 26.7319 30.3023 29.4619 29.3063 33.3706C29.2065 33.7626 29.4433 34.1613 29.8353 34.2611C30.2268 34.3611 30.626 34.1242 30.7258 33.7322C31.5562 30.473 34.4853 28.1967 37.8487 28.1967C41.9012 28.1967 45.1981 31.4936 45.1981 35.5461C45.1981 39.5985 41.9012 42.8954 37.8487 42.8954C34.2371 42.8954 31.1122 40.2042 30.5798 36.6355C30.5201 36.2353 30.1473 35.9598 29.7474 36.0192C29.3473 36.0788 29.0713 36.4516 29.131 36.8516C29.4392 38.9182 30.4832 40.8167 32.0704 42.1973C33.4888 43.4309 35.258 44.1733 37.1163 44.3286V46.2068C31.5643 45.8291 27.1624 41.1924 27.1624 35.5461C27.1624 31.3269 29.6604 27.4911 33.5264 25.774C33.791 25.6565 33.9615 25.3942 33.9615 25.1047V19.5065C33.9615 19.1218 34.2745 18.8088 34.6593 18.8088H41.0382C41.4229 18.8088 41.7359 19.1218 41.7359 19.5065V20.4025C41.7359 20.8069 42.0638 21.1349 42.4684 21.1349C42.8729 21.1349 43.2008 20.8069 43.2008 20.4025V19.5065C43.2008 18.3141 42.2307 17.344 41.0382 17.344H40.773V17.0032C40.773 15.436 39.5338 14.1532 37.9839 14.0822C37.8133 13.5272 37.6058 12.9814 37.3651 12.4526C37.384 12.4348 37.4032 12.4174 37.4217 12.3989C38.5619 11.2587 38.5619 9.40343 37.4217 8.2632L35.9039 6.74552C34.8603 5.70187 33.218 5.61427 32.0729 6.48097C31.1066 5.89025 30.074 5.42599 28.9939 5.09415C28.924 3.54327 27.6408 2.30304 26.0729 2.30304H23.9266C22.3588 2.30304 21.0756 3.54327 21.0056 5.09406C19.9258 5.42579 18.8935 5.89093 17.9272 6.48156C16.782 5.61407 15.1393 5.70167 14.0954 6.74552L12.5781 8.26329C11.4379 9.40353 11.4379 11.2588 12.5781 12.399C12.5968 12.4177 12.6162 12.4353 12.6353 12.4533C12.3944 12.9823 12.1876 13.5273 12.0169 14.0822C10.4665 14.1527 9.22676 15.4358 9.22676 17.0032V17.344H8.96162C7.76914 17.344 6.79902 18.3141 6.79902 19.5065V24.6391C5.94707 25.0587 5.14531 25.5779 4.41064 26.1865C4.09922 26.4445 4.05576 26.9063 4.31377 27.2178C4.57188 27.5293 5.0335 27.5726 5.34512 27.3147C6.10059 26.689 6.93623 26.1706 7.82891 25.7741C8.09346 25.6567 8.26396 25.3943 8.26396 25.1048V19.5066C8.26396 19.1219 8.57695 18.8089 8.96172 18.8089H15.3406C15.7253 18.8089 16.0384 19.1219 16.0384 19.5066V25.1048C16.0384 25.1183 16.0405 25.1313 16.0413 25.1446C16.0398 25.1638 16.0384 25.1829 16.0384 25.2025V27.637C14.8651 27.0581 13.5457 26.7321 12.1513 26.7321C7.29102 26.7321 3.33691 30.6861 3.33691 35.5464C3.33691 40.1599 6.9 43.9564 11.4188 44.3299V46.207C5.8667 45.8292 1.46484 41.1924 1.46484 35.5462C1.46484 33.3783 2.11338 31.2899 3.34014 29.5065C3.56943 29.1732 3.48506 28.7172 3.15186 28.4879C2.81846 28.2586 2.3626 28.343 2.1333 28.6762C0.737695 30.705 0 33.0806 0 35.5462C0 42.2464 5.45098 47.6974 12.1513 47.6974C18.8514 47.6974 24.3023 42.2464 24.3023 35.5462C24.3023 30.9088 21.6494 26.6791 17.5032 24.639V19.5066C17.5032 18.3142 16.5331 17.3441 15.3406 17.3441H15.0756V17.0033C15.0756 15.8595 14.4151 14.8676 13.4559 14.3872C13.5887 13.9715 13.7442 13.5624 13.9215 13.1632C14.159 13.2235 14.4024 13.2542 14.6461 13.2542C15.3949 13.2542 16.1438 12.9692 16.714 12.399L18.2316 10.8814C19.1063 10.0067 19.3091 8.71144 18.8417 7.64073C19.6221 7.17902 20.4487 6.80695 21.3105 6.53185C21.7908 7.49132 22.7828 8.15197 23.9268 8.15197H26.0731C27.2171 8.15197 28.2092 7.49132 28.6895 6.53185C29.5514 6.80695 30.3776 7.1796 31.1579 7.64132C30.6908 8.71193 30.8938 10.0068 31.7684 10.8814L33.286 12.399C33.8562 12.9692 34.6051 13.2542 35.3539 13.2542C35.5975 13.2542 35.8408 13.2235 36.0781 13.1633C36.2553 13.5622 36.411 13.9716 36.5439 14.3873C35.5848 14.8677 34.9245 15.8596 34.9245 17.0033V17.3441H34.6594C33.4669 17.3441 32.4968 18.3142 32.4968 19.5066V24.6391C28.3506 26.6792 25.6977 30.9088 25.6977 35.5463C25.6977 42.2465 31.1486 47.6975 37.8488 47.6975C44.5489 47.6975 50 42.2465 50 35.5463C50 30.9087 47.3471 26.679 43.2009 24.6389ZM4.80176 35.5462C4.80176 31.4938 8.09873 28.1968 12.1513 28.1968C16.2037 28.1968 19.5006 31.4937 19.5006 35.5462C19.5006 39.5986 16.2037 42.8955 12.1513 42.8955C8.09873 42.8955 4.80176 39.5986 4.80176 35.5462ZM22.8374 35.5462C22.8374 41.1925 18.4356 45.8292 12.8836 46.2069V44.3298C17.4022 43.9563 20.9653 40.1598 20.9653 35.5463C20.9653 32.6975 19.6063 30.1604 17.5031 28.5481V26.3C20.7771 28.1996 22.8374 31.7146 22.8374 35.5462ZM13.6107 17.344H10.6916V17.0032C10.6916 16.1984 11.3464 15.5437 12.1512 15.5437C12.956 15.5437 13.6106 16.1984 13.6106 17.0032V17.344H13.6107ZM17.1957 9.84552L15.678 11.3632C15.1091 11.9323 14.1829 11.9322 13.614 11.3632C13.3383 11.0875 13.1864 10.721 13.1864 10.3312C13.1864 9.94132 13.3383 9.57472 13.614 9.29913L15.1315 7.78146C15.4161 7.49689 15.7898 7.3547 16.1636 7.3547C16.5373 7.3547 16.9111 7.49698 17.1956 7.78156C17.7647 8.3505 17.7647 9.27648 17.1957 9.84552ZM26.0731 6.68702H23.9268C23.122 6.68702 22.4673 6.03224 22.4673 5.22745C22.4673 4.42267 23.122 3.76788 23.9268 3.76788H26.0731C26.8779 3.76788 27.5326 4.42267 27.5326 5.22745C27.5327 6.03234 26.8779 6.68702 26.0731 6.68702ZM34.322 11.3632L32.8043 9.84552C32.2353 9.27648 32.2353 8.3505 32.8042 7.78136C33.0888 7.49679 33.4625 7.3546 33.8363 7.3546C34.21 7.3546 34.5838 7.49689 34.8683 7.78136L36.3859 9.29904C36.6616 9.57472 36.8135 9.94122 36.8135 10.3311C36.8135 10.7209 36.6616 11.0875 36.3859 11.3631C35.8172 11.9322 34.891 11.9323 34.322 11.3632ZM36.3894 17.0032C36.3894 16.1984 37.044 15.5437 37.8488 15.5437C38.6536 15.5437 39.3083 16.1984 39.3083 17.0032V17.344H36.3893V17.0032H36.3894ZM38.5812 46.2068V44.3297C43.1 43.9562 46.6631 40.1597 46.6631 35.5462C46.6631 32.6974 45.3042 30.1603 43.2009 28.548V26.3C46.4748 28.1996 48.5352 31.7146 48.5352 35.5462C48.5352 41.1924 44.1334 45.8292 38.5812 46.2068Z" fill="#0D734C"/>
</g>
<defs>
<clipPath id="clip0_219_1494">
<rect width="50" height="50" fill="white"/>
</clipPath>
</defs>
</svg>
