<svg width="50" height="50" viewBox="0 0 50 50" fill="none" xmlns="http://www.w3.org/2000/svg">
<g clip-path="url(#clip0_219_3069)">
<path d="M42.6777 7.32245C37.9558 2.60067 31.6777 0.000183105 25 0.000183105C18.3223 0.000183105 12.0442 2.60067 7.32227 7.32245C2.60049 12.0444 0 18.3224 0 25.0002C0 31.6779 2.60049 37.9559 7.32227 42.6779C12.0442 47.3997 18.3223 50.0002 25 50.0002C31.6777 50.0002 37.9558 47.3997 42.6777 42.6779C47.3995 37.9559 50 31.6779 50 25.0002C50 18.3224 47.3995 12.0444 42.6777 7.32245ZM41.6419 41.6421C37.1967 46.0873 31.2865 48.5353 25 48.5353C18.7135 48.5353 12.8033 46.0873 8.35811 41.6421C3.91289 37.1969 1.46484 31.2867 1.46484 25.0002C1.46484 18.7137 3.91289 12.8035 8.35811 8.35829C12.8033 3.91307 18.7135 1.46503 25 1.46503C31.2865 1.46503 37.1967 3.91307 41.6419 8.35829C46.0871 12.8035 48.5352 18.7137 48.5352 25.0002C48.5352 31.2867 46.0871 37.1969 41.6419 41.6421Z" fill="#0D734C"/>
<path d="M25 7.82843C24.5955 7.82843 24.2676 8.15636 24.2676 8.56085V11.6921C24.2676 12.0966 24.5955 12.4245 25 12.4245C25.4045 12.4245 25.7324 12.0967 25.7324 11.6922V8.56085C25.7324 8.15636 25.4045 7.82843 25 7.82843Z" fill="#0D734C"/>
<path d="M25 37.5757C24.5955 37.5757 24.2676 37.9037 24.2676 38.3082V41.4394C24.2676 41.8439 24.5955 42.1718 25 42.1718C25.4045 42.1718 25.7324 41.8439 25.7324 41.4394V38.3082C25.7324 37.9037 25.4045 37.5757 25 37.5757Z" fill="#0D734C"/>
<path d="M41.4394 24.2678H38.3081C37.9036 24.2678 37.5757 24.5957 37.5757 25.0002C37.5757 25.4047 37.9036 25.7326 38.3081 25.7326H41.4394C41.8438 25.7326 42.1718 25.4047 42.1718 25.0002C42.1718 24.5957 41.8438 24.2678 41.4394 24.2678Z" fill="#0D734C"/>
<path d="M11.6918 24.2678H8.56055C8.15605 24.2678 7.82812 24.5957 7.82812 25.0002C7.82812 25.4047 8.15605 25.7326 8.56055 25.7326H11.6918C12.0963 25.7326 12.4242 25.4047 12.4242 25.0002C12.4242 24.5957 12.0963 24.2678 11.6918 24.2678Z" fill="#0D734C"/>
<path d="M12.4854 16.9291L11.1295 16.1463C10.7791 15.9439 10.3313 16.064 10.129 16.4143C9.92676 16.7646 10.0468 17.2126 10.3971 17.4148L11.7529 18.1976C11.8683 18.2642 11.9942 18.2959 12.1185 18.2959C12.3716 18.2959 12.6178 18.1644 12.7534 17.9296C12.9557 17.5793 12.8356 17.1313 12.4854 16.9291Z" fill="#0D734C"/>
<path d="M39.603 32.5855L38.2472 31.8027C37.8969 31.6004 37.4489 31.7205 37.2467 32.0708C37.0444 32.4211 37.1645 32.869 37.5147 33.0713L38.8706 33.8541C38.9859 33.9207 39.1119 33.9523 39.2361 33.9523C39.4893 33.9523 39.7355 33.8209 39.8711 33.586C40.0733 33.2357 39.9533 32.7878 39.603 32.5855Z" fill="#0D734C"/>
<path d="M33.5859 10.1291C33.2356 9.92677 32.7877 10.0469 32.5854 10.3972L31.8026 11.753C31.6003 12.1033 31.7204 12.5513 32.0707 12.7535C32.186 12.8201 32.312 12.8518 32.4362 12.8518C32.6893 12.8518 32.9355 12.7203 33.0711 12.4855L33.854 11.1296C34.0562 10.7793 33.9362 10.3314 33.5859 10.1291Z" fill="#0D734C"/>
<path d="M17.9294 37.2468C17.579 37.0445 17.1311 37.1646 16.9289 37.5149L16.1461 38.8708C15.9439 39.2211 16.0639 39.669 16.4142 39.8713C16.5295 39.9379 16.6555 39.9695 16.7797 39.9695C17.0328 39.9695 17.279 39.8381 17.4147 39.6032L18.1975 38.2473C18.3997 37.897 18.2797 37.4491 17.9294 37.2468Z" fill="#0D734C"/>
<path d="M39.8711 16.4142C39.6689 16.0639 39.2208 15.9439 38.8706 16.1462L37.5147 16.929C37.1645 17.1312 37.0444 17.5792 37.2467 17.9295C37.3823 18.1644 37.6285 18.2958 37.8816 18.2958C38.0059 18.2958 38.1318 18.2641 38.2472 18.1975L39.603 17.4147C39.9533 17.2125 40.0733 16.7645 39.8711 16.4142Z" fill="#0D734C"/>
<path d="M12.7534 32.0708C12.5512 31.7204 12.1032 31.6004 11.7529 31.8027L10.3971 32.5855C10.0468 32.7878 9.92676 33.2357 10.129 33.586C10.2647 33.821 10.5108 33.9523 10.764 33.9523C10.8882 33.9523 11.0142 33.9207 11.1295 33.8541L12.4854 33.0713C12.8356 32.8691 12.9557 32.4212 12.7534 32.0708Z" fill="#0D734C"/>
<path d="M18.1975 11.753L17.4147 10.3971C17.2124 10.0467 16.7645 9.92673 16.4142 10.1291C16.0639 10.3313 15.9439 10.7793 16.1461 11.1296L16.9289 12.4854C17.0646 12.7204 17.3107 12.8517 17.5639 12.8517C17.6881 12.8517 17.8141 12.8201 17.9294 12.7535C18.2797 12.5512 18.3997 12.1033 18.1975 11.753Z" fill="#0D734C"/>
<path d="M33.854 38.8708L33.0711 37.5149C32.869 37.1646 32.421 37.0445 32.0707 37.2468C31.7204 37.4491 31.6003 37.897 31.8026 38.2473L32.5854 39.6032C32.7211 39.8382 32.9672 39.9695 33.2204 39.9695C33.3446 39.9695 33.4706 39.9379 33.5859 39.8713C33.9362 39.669 34.0562 39.2211 33.854 38.8708Z" fill="#0D734C"/>
<path d="M35.9005 23.3232C35.8391 22.9234 35.4658 22.6491 35.0653 22.7107L27.0406 23.9452C26.6576 23.2075 25.8869 22.7022 25 22.7022C24.6331 22.7022 24.2863 22.7891 23.9782 22.9427L16.124 15.0885C15.838 14.8025 15.3742 14.8025 15.0883 15.0885C14.8023 15.3745 14.8023 15.8383 15.0883 16.1242L22.9425 23.9784C22.7889 24.2864 22.702 24.6333 22.702 25.0002C22.702 26.2674 23.7329 27.2983 25 27.2983C26.1332 27.2983 27.0769 26.4735 27.2638 25.393L35.2881 24.1585C35.6878 24.0969 35.962 23.723 35.9005 23.3232ZM24.9999 25.8334C24.5405 25.8334 24.1667 25.4596 24.1667 25.0002C24.1667 24.5408 24.5406 24.167 24.9999 24.167C25.4593 24.167 25.8331 24.5408 25.8331 25.0002C25.8331 25.4596 25.4594 25.8334 24.9999 25.8334Z" fill="#0D734C"/>
<path d="M38.1588 9.54537C34.2858 6.24108 29.3422 4.52477 24.2382 4.71403C19.1057 4.90377 14.2777 7.00973 10.6437 10.6437C7.00972 14.2777 4.90377 19.1057 4.71402 24.2382C4.52525 29.3421 6.24107 34.2859 9.54537 38.1589C9.69019 38.3287 9.89586 38.4159 10.1029 38.4159C10.2711 38.4159 10.44 38.3584 10.5779 38.2407C10.8856 37.9782 10.9222 37.5159 10.6597 37.2082C7.59439 33.6152 6.0026 29.0284 6.17779 24.2923C6.35387 19.5305 8.30777 15.0512 11.6795 11.6795C15.0511 8.30768 19.5305 6.35387 24.2923 6.1778C29.0287 6.0027 33.6152 7.5944 37.2082 10.6597C37.5158 10.9222 37.9782 10.8856 38.2407 10.5779C38.5032 10.2702 38.4666 9.80787 38.1588 9.54537Z" fill="#0D734C"/>
<path d="M40.4548 11.8414C40.1923 11.5337 39.7299 11.4969 39.4222 11.7595C39.1145 12.022 39.0779 12.4843 39.3404 12.7921C42.4057 16.385 43.9974 20.9719 43.8223 25.7079C43.6463 30.4697 41.6924 34.949 38.3207 38.3208C34.949 41.6926 30.4696 43.6464 25.7078 43.8224C20.9722 43.9977 16.3849 42.4059 12.792 39.3405C12.4843 39.078 12.0219 39.1146 11.7594 39.4223C11.4969 39.7301 11.5336 40.1924 11.8413 40.4549C15.5217 43.5948 20.1687 45.3003 25.0014 45.3003C25.2544 45.3003 25.5081 45.2956 25.762 45.2862C30.8945 45.0965 35.7225 42.9905 39.3565 39.3565C42.9905 35.7225 45.0965 30.8945 45.2862 25.762C45.4749 20.6583 43.7591 15.7144 40.4548 11.8414Z" fill="#0D734C"/>
</g>
<defs>
<clipPath id="clip0_219_3069">
<rect width="50" height="50" fill="white"/>
</clipPath>
</defs>
</svg>
