<svg width="50" height="50" viewBox="0 0 50 50" fill="none" xmlns="http://www.w3.org/2000/svg">
<g clip-path="url(#clip0_219_3156)">
<path d="M49.952 14.053C49.8744 13.4171 49.5535 12.8497 49.0484 12.4554L33.742 0.506397C32.7016 -0.305752 31.1917 -0.121271 30.3763 0.918038L15.5483 19.8222L5.70948 26.4093C5.70928 26.4094 5.70909 26.4096 5.7088 26.4097L2.99294 28.2281L1.09627 29.498C1.06287 29.5203 1.03015 29.5434 0.998214 29.5672C0.518406 29.9235 0.192706 30.4378 0.0762943 31.0276C-0.0475399 31.6553 0.0804938 32.2933 0.436761 32.8242L0.438031 32.826C0.438031 32.8261 0.438128 32.8262 0.438226 32.8263L2.73531 36.2493L3.53105 37.4351L8.16575 44.3414C8.16575 44.3414 8.16585 44.3414 8.16585 44.3415L8.93473 45.4873L11.2517 48.9399C11.7136 49.6281 12.4734 50.0002 13.2467 50.0002C13.7055 50.0002 14.1692 49.8692 14.5783 49.5953L14.5797 49.5943C14.5799 49.5942 14.5802 49.594 14.5804 49.594L19.0839 46.5789L21.0732 48.1318C21.5103 48.4729 22.0301 48.6382 22.5464 48.6382C23.2596 48.6382 23.9661 48.3229 24.439 47.7201L32.2466 37.7663L43.6292 30.1456C43.6441 30.137 43.6596 30.1299 43.6741 30.1202L48.2868 27.0319C48.8203 26.6748 49.1825 26.1315 49.3066 25.5023C49.4305 24.8747 49.3024 24.2367 48.9462 23.7058L48.9436 23.7021C48.9432 23.7016 48.9429 23.701 48.9426 23.7005L46.3316 19.8097L49.4585 15.8232C49.8543 15.3181 50.0297 14.6895 49.952 14.053ZM6.48462 32.289C6.197 33.7462 5.43652 35.0325 4.31713 35.9774L1.99045 32.5104L1.6545 32.0097C1.51592 31.8031 1.46601 31.5548 1.51426 31.3105C1.55654 31.0963 1.66973 30.9077 1.83644 30.7707C1.86027 30.7511 1.88527 30.7326 1.91125 30.7152L3.22586 29.8351L5.88224 28.0567C6.55786 29.355 6.77203 30.8326 6.48462 32.289ZM13.764 48.3773C13.335 48.6633 12.7541 48.5496 12.468 48.1233L12.436 48.0755L9.81368 44.1679C12.4936 42.7785 15.8019 43.4219 17.747 45.7107L13.764 48.3773ZM23.2862 46.8158C22.9683 47.221 22.3799 47.2934 21.9745 46.9768L20.3654 45.7206L28.3255 40.3913L23.2862 46.8158ZM42.8981 24.2407C43.1857 22.7835 43.9462 21.4971 45.0656 20.5522L47.7271 24.5182C47.8649 24.7246 47.9144 24.9722 47.8662 25.2159C47.8179 25.4608 47.677 25.6723 47.4692 25.8113L43.4988 28.4696C42.8246 27.1722 42.611 25.6958 42.8981 24.2407ZM48.3056 14.9189L45.4728 18.5303L38.1289 7.58682C37.393 6.49009 35.9006 6.19613 34.8023 6.93142L28.3127 11.2762C27.5258 11.8031 28.3407 13.02 29.1278 12.4935L30.4099 11.6351C31.9544 13.5351 34.2473 14.5545 36.5804 14.5545C37.8783 14.5545 39.1882 14.2378 40.3889 13.5834L44.2457 19.3306C42.8041 20.4978 41.8243 22.1156 41.4608 23.9569C41.0977 25.796 41.3882 27.6624 42.276 29.288L31.3281 36.6176C31.327 36.6184 31.3259 36.6191 31.3248 36.6199L18.9692 44.8921C16.5652 41.9379 12.3518 41.116 8.99372 42.9464L5.1367 37.1989C6.57837 36.0317 7.5581 34.4139 7.9216 32.5726C8.2849 30.7322 7.99387 28.8645 7.10447 27.2381L25.7251 14.7714C26.512 14.2445 25.697 13.0273 24.91 13.5541L19.469 17.1969L31.529 1.82218C31.8468 1.41709 32.4351 1.34462 32.8407 1.66124L48.147 13.6102C48.3432 13.7633 48.4677 13.9835 48.4979 14.2305C48.5281 14.4779 48.4598 14.7223 48.3056 14.9189ZM35.6174 8.15335C36.0467 7.86613 36.6285 7.97981 36.9148 8.40649L38.2566 10.4058L39.5692 12.3619C36.8892 13.7513 33.581 13.1079 31.6359 10.8191L35.6174 8.15335Z" fill="#0D734C"/>
<path d="M19.3324 20.2779C17.1969 21.7077 15.7468 23.8828 15.2494 26.4027C14.7522 28.9214 15.2666 31.4829 16.6977 33.6153C18.1338 35.7554 20.3189 37.2055 22.8504 37.6985C23.751 37.8737 24.0444 36.4386 23.1304 36.2605C20.9841 35.8425 19.1316 34.6132 17.9141 32.799C16.7011 30.9917 16.2652 28.8208 16.6866 26.6862C17.1081 24.5506 18.3372 22.707 20.1475 21.495C23.884 18.9933 28.9618 19.9949 31.4666 23.7274C32.6796 25.5348 33.1154 27.7057 32.6941 29.8403C32.2725 31.9758 31.0434 33.8194 29.2332 35.0312C28.5208 35.5082 27.7457 35.8681 26.9294 36.1008C26.0186 36.3604 26.4203 37.7691 27.3311 37.5096C28.2944 37.2349 29.2086 36.8106 30.0482 36.2485C32.1837 34.8186 33.6338 32.6436 34.1312 30.1239C34.6284 27.6051 34.114 25.0435 32.6829 22.911C29.7284 18.5088 23.7397 17.3273 19.3324 20.2779Z" fill="#0D734C"/>
<path d="M35.8454 21.5279C35.9856 21.5279 36.1272 21.4877 36.2523 21.404L39.7004 19.0954C40.0364 18.8703 40.1265 18.4154 39.9016 18.0793C39.6765 17.7431 39.2215 17.6532 38.8854 17.8781L35.4373 20.1866C35.1012 20.4117 35.0112 20.8666 35.2361 21.2028C35.3773 21.4139 35.6092 21.5279 35.8454 21.5279Z" fill="#0D734C"/>
<path d="M13.1282 35.1227L9.6802 37.4312C9.34415 37.6562 9.25411 38.1111 9.47902 38.4473C9.62034 38.6583 9.85209 38.7724 10.0883 38.7724C10.2285 38.7724 10.3701 38.7322 10.4952 38.6484L13.9432 36.3399C14.2793 36.1149 14.3693 35.66 14.1444 35.3239C13.9192 34.9877 13.4644 34.8976 13.1282 35.1227Z" fill="#0D734C"/>
<path d="M27.2918 33.5607C27.844 34.3836 29.0197 33.5066 28.5081 32.7444L28.1135 32.1564C29.1696 31.068 29.204 29.5622 28.7235 28.4971C27.9302 26.739 26.2989 26.5939 24.6426 26.9843L22.9809 24.5081C23.3983 24.3726 23.7236 24.4079 23.7558 24.4118C24.6882 24.5463 24.9037 23.107 23.972 22.963C23.9213 22.9553 23.0908 22.8373 22.1459 23.2639L21.8236 22.7837C21.2958 21.9974 20.0794 22.8136 20.6073 23.6L20.9588 24.1238C20.1977 24.9402 19.9775 26.1394 20.4191 27.1717C21.0661 28.6844 22.516 28.8642 23.9736 28.6164L26.1119 31.8028C25.6882 32.033 25.3472 32.1047 24.7074 32.1124C23.7819 32.1236 23.8206 33.5914 24.7252 33.5772C25.7232 33.5651 26.2996 33.3872 26.9306 33.0227L27.2918 33.5607ZM22.5345 27.261C22.231 27.2386 21.9293 26.9775 21.766 26.5956C21.6259 26.2681 21.577 25.8004 21.8145 25.3987L23.0609 27.256C22.8731 27.2697 22.6957 27.2728 22.5345 27.261ZM25.5631 28.2657C26.7686 27.9567 27.2646 28.8258 27.3882 29.0995C27.6199 29.613 27.6372 30.31 27.2594 30.8835L25.5114 28.2788C25.5288 28.2743 25.5454 28.2703 25.5631 28.2657Z" fill="#0D734C"/>
</g>
<defs>
<clipPath id="clip0_219_3156">
<rect width="50" height="50" fill="white"/>
</clipPath>
</defs>
</svg>
