<svg width="50" height="50" viewBox="0 0 50 50" fill="none" xmlns="http://www.w3.org/2000/svg">
<g clip-path="url(#clip0_219_3166)">
<path d="M47.2664 20.875L44.3352 18.5297C44.3234 18.5203 44.3117 18.5086 44.3 18.4992L47.0289 17.9531C47.3937 17.8805 47.6562 17.5602 47.6562 17.1875V14.8438C47.6562 14.4125 47.3063 14.0625 46.875 14.0625H42.9688C42.5375 14.0625 42.1875 14.4125 42.1875 14.8438V16.2125C42.1695 16.1883 42.1516 16.1641 42.1336 16.1398C42.0844 16.0039 41.9969 15.893 41.8859 15.8047C41.4461 15.182 41.0695 14.5586 40.8242 14.0195L39.5039 11.1156C38.6625 9.26328 36.4094 7.8125 34.375 7.8125H15.625C13.5906 7.8125 11.3375 9.26328 10.4961 11.1156L9.17656 14.0188C8.93125 14.5578 8.55469 15.182 8.11484 15.8047C8.00391 15.893 7.91719 16.0039 7.86719 16.1398C7.84922 16.1641 7.83203 16.1875 7.81328 16.2125V14.8438C7.81328 14.4125 7.46328 14.0625 7.03203 14.0625H3.125C2.69375 14.0625 2.34375 14.4125 2.34375 14.8438V17.1875C2.34375 17.5602 2.60625 17.8805 2.97187 17.9531L5.70078 18.4992C5.68906 18.5086 5.67734 18.5203 5.66563 18.5297L2.73359 20.875C1.20078 22.1016 0 24.6 0 26.5625V39.8438C0 41.1359 1.05156 42.1875 2.34375 42.1875H8.59375C9.88594 42.1875 10.9375 41.1359 10.9375 39.8438V38.2812H39.0625V39.8438C39.0625 41.1359 40.1141 42.1875 41.4062 42.1875H47.6562C48.9484 42.1875 50 41.1359 50 39.8438V26.5625C50 24.6 48.7992 22.1016 47.2664 20.875ZM40.1672 36.7188L38.3758 34.9273C37.6156 34.1672 36.2313 33.5938 35.1562 33.5938H14.4531C13.3781 33.5938 11.9937 34.1672 11.2336 34.9273L9.44219 36.7188H3.90625C2.61406 36.7188 1.5625 35.6672 1.5625 34.375V30.4688H2.34375V31.25C2.34375 32.9734 3.74531 34.375 5.46875 34.375H7.8125C8.24375 34.375 8.59375 34.025 8.59375 33.5938C8.59375 33.1625 8.24375 32.8125 7.8125 32.8125H5.46875C4.60703 32.8125 3.90625 32.1117 3.90625 31.25V30.4688H5.46875C6.11719 30.4688 7.125 30.8859 7.58359 31.3445C7.73594 31.4969 7.93594 31.5734 8.13594 31.5734C8.33594 31.5734 8.53594 31.4969 8.68828 31.3445C8.99375 31.0391 8.99375 30.5453 8.68828 30.2398C7.92813 29.4797 6.54453 28.9062 5.46875 28.9062H1.5625V26.5625C1.5625 26.2867 1.60625 25.9891 1.66797 25.6852C2.16797 26.207 2.89531 26.5625 3.90625 26.5625H10.1562C10.3633 26.5625 10.5617 26.4805 10.7086 26.3336L11.7188 25.3234L12.7289 26.3336C12.875 26.4805 13.0742 26.5625 13.2812 26.5625H22.3328L24.4477 28.6773C24.6 28.8297 24.8 28.9062 25 28.9062C25.2 28.9062 25.4 28.8297 25.5523 28.6773L27.6672 26.5625H36.7188C36.9258 26.5625 37.125 26.4805 37.2711 26.3336L38.2812 25.3234L39.2914 26.3336C39.4375 26.4805 39.6367 26.5625 39.8438 26.5625H46.0938C47.1047 26.5625 47.832 26.207 48.332 25.6852C48.3938 25.9891 48.4375 26.2867 48.4375 26.5625V28.9062H44.5312C43.4562 28.9062 42.0719 29.4797 41.3117 30.2398C41.0063 30.5453 41.0063 31.0391 41.3117 31.3445C41.4641 31.4969 41.6641 31.5734 41.8641 31.5734C42.0641 31.5734 42.2641 31.4969 42.4164 31.3445C42.875 30.8859 43.8828 30.4688 44.5312 30.4688H46.0938V31.25C46.0938 32.1117 45.393 32.8125 44.5312 32.8125H42.1875C41.7562 32.8125 41.4062 33.1625 41.4062 33.5938C41.4062 34.025 41.7562 34.375 42.1875 34.375H44.5312C46.2547 34.375 47.6562 32.9734 47.6562 31.25V30.4688H48.4375V34.375C48.4375 35.6672 47.3859 36.7188 46.0938 36.7188H40.1672ZM37.9578 36.7188H11.6516L12.3383 36.032C12.7969 35.5734 13.8047 35.1562 14.4531 35.1562H35.1562C35.8047 35.1562 36.8125 35.5734 37.2711 36.032L37.9578 36.7188ZM9.03125 17.1875H40.9688C41.7258 18.1883 42.5906 19.1352 43.3586 19.75L44.2984 20.5016L38.7727 22.7117C38.7719 22.7117 38.7719 22.7125 38.7711 22.7125C38.6766 22.7508 38.5875 22.8078 38.5109 22.8844L37.7297 23.6656L36.3953 25H27.3438C27.1367 25 26.9375 25.082 26.7914 25.2289L25 27.0203L23.2086 25.2289C23.0625 25.082 22.8633 25 22.6562 25H13.6047L12.2711 23.6664L11.4898 22.8852C11.4133 22.8086 11.3242 22.7516 11.2297 22.7133C11.2289 22.7133 11.2289 22.7125 11.2281 22.7125L5.70234 20.5023L6.64219 19.7508C7.40937 19.1352 8.27422 18.1883 9.03125 17.1875ZM47.6102 23.7648C47.4531 24.5813 46.9469 25 46.0938 25H40.1672L39.3859 24.2188L39.5016 24.1031L45.7008 21.6234L46.2898 22.0953C46.7852 22.4914 47.2422 23.0938 47.6102 23.7648ZM43.75 15.625H46.0938V16.5469L43.75 17.0156V15.625ZM10.5977 14.6656L11.9172 11.7625C12.5062 10.468 14.2039 9.375 15.625 9.375H34.375C35.7961 9.375 37.4937 10.468 38.082 11.7617L39.4023 14.6656C39.5398 14.9672 39.7188 15.293 39.9148 15.625H10.0852C10.2812 15.293 10.4609 14.9672 10.5977 14.6656ZM3.90625 15.625H6.25V17.0156L3.90625 16.5469V15.625ZM3.70938 22.0953L4.29844 21.6234L10.4984 24.1031L10.6141 24.2188L9.83281 25H3.90625C3.05312 25 2.54688 24.5813 2.38984 23.7648C2.75781 23.0938 3.21406 22.4914 3.70938 22.0953ZM8.59375 40.625H2.34375C1.91328 40.625 1.5625 40.2742 1.5625 39.8438V37.4805C2.21719 37.9758 3.02344 38.2812 3.90625 38.2812H9.375V39.8438C9.375 40.2742 9.02422 40.625 8.59375 40.625ZM47.6562 40.625H41.4062C40.9758 40.625 40.625 40.2742 40.625 39.8438V38.2812H46.0938C46.9766 38.2812 47.7828 37.9758 48.4375 37.4805V39.8438C48.4375 40.2742 48.0867 40.625 47.6562 40.625Z" fill="#0D734C"/>
</g>
<defs>
<clipPath id="clip0_219_3166">
<rect width="50" height="50" fill="white"/>
</clipPath>
</defs>
</svg>
