<svg width="60" height="60" viewBox="0 0 60 60" fill="none" xmlns="http://www.w3.org/2000/svg">
<g clip-path="url(#clip0_201_292)">
<path d="M54.135 46.653C55.3202 45.0233 55.9625 43.062 55.971 41.047C55.9838 40.782 55.8907 40.5228 55.7124 40.3265C55.534 40.1301 55.285 40.0127 55.02 40C54.4704 39.9795 54.0053 40.402 53.973 40.951C53.9805 42.548 53.4886 44.1074 52.566 45.411C50.615 47.875 46.913 48 46.19 48C45.6377 48 45.19 48.4477 45.19 49C45.19 49.5523 45.6377 50 46.19 50C47.074 50 51.611 49.839 54.135 46.653Z" fill="#0D734C"/>
<path d="M34 34C34 33.4477 33.5523 33 33 33C32.4477 33 32 33.4477 32 34C32 36.2091 33.7909 38 36 38V39C36 39.5523 36.4477 40 37 40C37.5523 40 38 39.5523 38 39V38C40.2091 38 42 36.2091 42 34C42 31.7909 40.2091 30 38 30V26C39.1046 26 40 26.8954 40 28C40 28.5523 40.4477 29 41 29C41.5523 29 42 28.5523 42 28C42 25.7909 40.2091 24 38 24V23C38 22.4477 37.5523 22 37 22C36.4477 22 36 22.4477 36 23V24C33.7909 24 32 25.7909 32 28C32 30.2091 33.7909 32 36 32V36C34.8954 36 34 35.1046 34 34ZM34 28C34 26.8954 34.8954 26 36 26V30C34.8954 30 34 29.1046 34 28ZM38 32C39.1046 32 40 32.8954 40 34C40 35.1046 39.1046 36 38 36V32Z" fill="#0D734C"/>
<path d="M59.164 33.771C56.7 23.3 51.222 17.233 47.266 14.064C52.227 14.438 53.824 16.502 53.871 16.564C54.1843 17.0112 54.7984 17.1245 55.2506 16.8184C55.7028 16.5123 55.8258 15.9 55.527 15.443C55.455 15.335 54.066 13.351 50.027 12.443C51.0598 11.594 51.6707 10.3367 51.7 9.00001C51.5663 6.78396 50.0236 4.90479 47.876 4.34201C47.9641 3.61967 48.0088 2.8927 48.01 2.16501C48.0089 1.49461 47.672 0.869341 47.1128 0.4997C46.5535 0.130059 45.8462 0.0652209 45.229 0.327013C44.7241 0.555589 44.2552 0.856407 43.837 1.22001C43.3463 1.72433 42.6707 2.00613 41.967 2.00001C41.2644 2.00496 40.5902 1.72328 40.1 1.22001C38.3377 -0.407648 35.6203 -0.407648 33.858 1.22001C33.3672 1.72543 32.6905 2.00738 31.986 2.00001C31.2836 2.00585 30.6093 1.72402 30.12 1.22001C29.7029 0.857187 29.2353 0.556731 28.732 0.328013C28.1152 0.0679756 27.4093 0.1337 26.8511 0.503121C26.293 0.872543 25.9566 1.49668 25.955 2.16601C25.955 4.65401 26.447 9.09201 29.562 12.072C27.9249 13.0675 26.396 14.2307 25 15.543V8.00001C25 5.72001 21.775 4.00001 17.5 4.00001C13.225 4.00001 10 5.72001 10 8.00001V18.075C6.493 18.425 4 20 4 22V47.435C1.584 48.084 0 49.4 0 51V56C0 58.28 3.225 60 7.5 60C11.323 60 14.3 58.623 14.887 56.7C16.6132 57.614 18.5478 58.062 20.5 58C24.775 58 28 56.28 28 54V41C28 38.72 24.775 37 20.5 37C19.9991 36.9997 19.4984 37.0247 19 37.075V22C19 19.81 16.023 18.142 12 18.013V10.769C13.7012 11.6337 15.5925 12.057 17.5 12C19.4075 12.057 21.2988 11.6337 23 10.769V17.589C22.341 18.326 21.679 19.129 21.026 20.019C20.727 20.4643 20.8325 21.0662 21.2652 21.3832C21.6979 21.7002 22.3036 21.6194 22.638 21.2C23.2803 20.3305 23.9686 19.496 24.7 18.7C24.708 18.691 24.715 18.682 24.723 18.674C26.6319 16.5525 28.8736 14.756 31.36 13.355C31.8502 13.5915 32.3688 13.7639 32.903 13.868L30.325 16.274C29.9213 16.6512 29.8998 17.2843 30.277 17.688C30.6542 18.0917 31.2873 18.1132 31.691 17.736L35.691 14.005H36.01V17.005C36.01 17.5573 36.4577 18.005 37.01 18.005C37.5623 18.005 38.01 17.5573 38.01 17.005V14H38.329L42.329 17.731C42.5902 17.975 42.9617 18.0612 43.3036 17.957C43.6455 17.8528 43.9058 17.5742 43.9866 17.226C44.0673 16.8778 43.9562 16.513 43.695 16.269L41.1 13.853C41.631 13.7479 42.1463 13.5748 42.633 13.338C45.276 14.768 53.964 20.418 57.218 34.229C58.633 40.241 58.123 44.84 55.703 47.895C52.607 51.8 47.235 52 46.19 52H32C31.4477 52 31 52.4477 31 53C31 53.5523 31.4477 54 32 54H46.19C47.89 54 53.695 53.649 57.27 49.137C60.088 45.578 60.726 40.408 59.164 33.771ZM7.5 49C10.807 49 13 50.2 13 51C13 51.8 10.807 53 7.5 53C4.193 53 2 51.8 2 51C2 50.2 4.193 49 7.5 49ZM7.5 58C4.193 58 2 56.8 2 56V53.769C3.70123 54.6337 5.59248 55.057 7.5 55C9.40752 55.057 11.2988 54.6337 13 53.769V56C13 56.8 10.807 58 7.5 58ZM20.5 56C17.193 56 15 54.8 15 54V43.769C16.7012 44.6337 18.5925 45.057 20.5 45C22.4075 45.057 24.2988 44.6337 26 43.769V54C26 54.8 23.807 56 20.5 56ZM26 41C26 41.8 23.807 43 20.5 43C17.193 43 15 41.8 15 41C15 40.2 17.193 39 20.5 39C23.807 39 26 40.2 26 41ZM13 41V48.231C11.2988 47.3663 9.40752 46.943 7.5 47C6.99906 46.9997 6.49841 47.0247 6 47.075V24.769C7.70123 25.6337 9.59248 26.057 11.5 26C13.4075 26.057 15.2988 25.6337 17 24.769V37.435C14.584 38.084 13 39.4 13 41ZM17 22C17 22.8 14.807 24 11.5 24C8.193 24 6 22.8 6 22C6 21.2 8.193 20 11.5 20C14.807 20 17 21.2 17 22ZM17.5 10C14.193 10 12 8.80001 12 8.00001C12 7.20001 14.193 6.00001 17.5 6.00001C20.807 6.00001 23 7.20001 23 8.00001C23 8.80001 20.807 10 17.5 10ZM49.7 9.00001C49.7 10.639 47.925 11.984 45.7 12C45.3278 11.9977 44.957 11.9551 44.594 11.873C46.0454 10.3246 47.0542 8.41469 47.515 6.34301C48.7187 6.69768 49.5845 7.75047 49.7 9.00001ZM28.868 2.78001C29.7125 3.57135 30.8287 4.00809 31.986 4.00001C33.144 4.00871 34.261 3.57192 35.106 2.78001C35.6003 2.28095 36.2736 2.00018 36.976 2.00018C37.6784 2.00018 38.3517 2.28095 38.846 2.78001C39.691 3.57251 40.8086 4.00938 41.967 4.00001C43.1254 4.00896 44.2428 3.57216 45.088 2.78001C45.3651 2.53509 45.6735 2.32796 46.005 2.16401C46.005 4.02101 45.66 8.61201 42.438 11.129C41.7131 11.6734 40.8344 11.9741 39.928 11.988C40.7937 10.5011 41.4789 8.91626 41.969 7.26701C42.0648 6.92261 41.9695 6.55329 41.7191 6.29817C41.4687 6.04304 41.1012 5.94088 40.7551 6.03017C40.409 6.11945 40.1368 6.38661 40.041 6.73101C39.4872 8.61078 38.6357 10.3897 37.519 12H36.491C35.3765 10.3882 34.5249 8.60978 33.968 6.73101C33.8197 6.19889 33.2681 5.88773 32.736 6.03601C32.2039 6.1843 31.8927 6.73589 32.041 7.26801C32.5316 8.91868 33.2175 10.5049 34.084 11.993C33.1594 11.9883 32.261 11.6856 31.522 11.13C28.3 8.61401 27.955 4.02301 27.955 2.17201C28.2864 2.33078 28.5937 2.53546 28.868 2.78001Z" fill="#0D734C"/>
<path d="M54.135 46.6529C55.3202 45.0232 55.9625 43.062 55.971 41.0469C55.9838 40.782 55.8907 40.5228 55.7124 40.3264C55.534 40.1301 55.285 40.0126 55.02 39.9999C54.4708 39.9805 54.0063 40.4024 53.973 40.9509C53.9805 42.5479 53.4886 44.1073 52.566 45.4109C50.615 47.8749 46.913 47.9999 46.19 47.9999C45.6377 47.9999 45.19 48.4476 45.19 48.9999C45.19 49.5522 45.6377 49.9999 46.19 49.9999C47.074 49.9999 51.611 49.8389 54.135 46.6529Z" fill="#0D734C"/>
</g>
<defs>
<clipPath id="clip0_201_292">
<rect width="60" height="60" fill="white"/>
</clipPath>
</defs>
</svg>
