<svg width="60" height="60" viewBox="0 0 60 60" fill="none" xmlns="http://www.w3.org/2000/svg">
<path d="M27.1967 40.119L33.2235 35.0967C34.0117 34.4423 34.9572 34.0053 35.9664 33.8289C36.9756 33.6526 38.0133 33.7431 38.9768 34.0914L45.3067 36.3932C45.6147 36.5054 45.94 36.5627 46.2678 36.5625H58.125V34.6875H52.5V4.6875C52.4992 3.94184 52.2026 3.22696 51.6753 2.69969C51.148 2.17243 50.4332 1.87584 49.6875 1.875H10.3125C9.56684 1.87584 8.85196 2.17243 8.3247 2.69969C7.79744 3.22696 7.50085 3.94184 7.50001 4.6875V34.6804L1.87569 34.6761L1.87432 36.5511L16.5692 36.5623H16.5716C16.8738 36.5624 17.1741 36.5136 17.4607 36.4179L25.3205 33.7981C25.416 33.7662 25.5161 33.75 25.6168 33.75H31.9106L25.9964 38.6786C25.634 38.9789 25.3344 39.3478 25.1148 39.7642C24.8952 40.1805 24.7599 40.6361 24.7167 41.1048C24.6734 41.5735 24.7231 42.0461 24.8628 42.4956C25.0025 42.9451 25.2295 43.3626 25.5308 43.7242C25.8322 44.0858 26.2019 44.3844 26.6188 44.6029C27.0357 44.8214 27.4916 44.9555 27.9605 44.9975C28.4293 45.0395 28.9018 44.9886 29.3509 44.8477C29.8 44.7068 30.2169 44.4787 30.5777 44.1764L33.6925 41.5808L41.9933 49.8816C42.091 49.9792 42.1686 50.0951 42.2215 50.2227C42.2744 50.3503 42.3017 50.487 42.3017 50.6251C42.3018 50.7632 42.2746 50.9 42.2218 51.0276C42.169 51.1552 42.0915 51.2711 41.9939 51.3688C41.8962 51.4665 41.7803 51.5439 41.6527 51.5968C41.5251 51.6496 41.3883 51.6768 41.2502 51.6767C41.1121 51.6767 40.9753 51.6494 40.8478 51.5965C40.7202 51.5436 40.6043 51.4661 40.5067 51.3684L39.5692 50.4309L33.4755 44.3371L32.1495 45.6629L38.2433 51.7566C38.341 51.8542 38.4186 51.9701 38.4715 52.0977C38.5244 52.2253 38.5517 52.362 38.5517 52.5001C38.5518 52.6382 38.5246 52.775 38.4718 52.9026C38.419 53.0302 38.3415 53.1461 38.2439 53.2438C38.1462 53.3415 38.0303 53.4189 37.9027 53.4718C37.7751 53.5246 37.6383 53.5518 37.5002 53.5517C37.3621 53.5517 37.2253 53.5244 37.0978 53.4715C36.9702 53.4186 36.8543 53.3411 36.7567 53.2434L35.8192 52.3059L31.6005 48.0871L30.2745 49.4129L34.4933 53.6316C34.591 53.7292 34.6686 53.8451 34.7215 53.9727C34.7744 54.1003 34.8017 54.237 34.8017 54.3751C34.8018 54.5132 34.7746 54.65 34.7218 54.7776C34.669 54.9052 34.5915 55.0211 34.4939 55.1188C34.3962 55.2165 34.2803 55.2939 34.1527 55.3468C34.0251 55.3996 33.8883 55.4268 33.7502 55.4267C33.6121 55.4267 33.4753 55.3994 33.3478 55.3465C33.2202 55.2936 33.1043 55.2161 33.0067 55.1184L31.1317 53.2434L30.0978 52.2094C30.0284 51.5061 29.7064 50.8517 29.1914 50.3676C28.6765 49.8834 28.0035 49.6024 27.2972 49.5764C27.2702 48.8391 26.9652 48.1393 26.4435 47.6176C25.9218 47.0959 25.222 46.7909 24.4847 46.7639C24.4672 46.3068 24.3428 45.8601 24.1215 45.4598C23.9002 45.0594 23.5881 44.7165 23.2103 44.4585C22.8325 44.2006 22.3995 44.0347 21.946 43.9744C21.4926 43.914 21.0313 43.9607 20.5991 44.1108C20.4467 43.6326 20.1738 43.2016 19.8067 42.8593C19.4396 42.517 18.9905 42.275 18.5028 42.1565C18.015 42.0379 17.505 42.0469 17.0217 42.1825C16.5384 42.3182 16.0982 42.5759 15.7433 42.9308L13.8683 44.8058C13.5965 45.0773 13.3811 45.3997 13.2342 45.7546C13.0874 46.1095 13.0121 46.4899 13.0127 46.874L1.87591 46.8636L1.87408 48.7386L7.50001 48.7439V55.3125C7.50085 56.0582 7.79744 56.773 8.3247 57.3003C8.85196 57.8276 9.56684 58.1242 10.3125 58.125H19.6875V56.25H10.3125C10.064 56.2497 9.82566 56.1509 9.64991 55.9751C9.47415 55.7993 9.37529 55.5611 9.37501 55.3125V48.7456L13.6913 48.7497C13.7471 48.8164 13.8057 48.8815 13.8683 48.9441C14.3891 49.4677 15.0898 49.7732 15.8278 49.7986C15.8548 50.5359 16.1598 51.2357 16.6815 51.7574C17.2032 52.2791 17.903 52.5841 18.6403 52.6111C18.6578 53.0682 18.7822 53.5149 19.0035 53.9152C19.2249 54.3156 19.5369 54.6585 19.9147 54.9165C20.2925 55.1744 20.7255 55.3403 21.179 55.4006C21.6324 55.461 22.0937 55.4143 22.5259 55.2642C22.6539 55.6656 22.8671 56.0345 23.1509 56.3459C23.4347 56.6573 23.7823 56.9038 24.1701 57.0685C24.5579 57.2331 24.9767 57.3121 25.3978 57.3001C25.8189 57.288 26.2325 57.1851 26.6102 56.9985L26.9933 57.3816C27.3291 57.7179 27.7418 57.9672 28.1957 58.1081C28.6496 58.2489 29.131 58.277 29.5982 58.19C30.0653 58.1029 30.5043 57.9034 30.877 57.6085C31.2497 57.3137 31.5449 56.9325 31.7372 56.4978C32.0963 56.8391 32.5363 57.0834 33.0158 57.2079C33.4953 57.3324 33.9986 57.3331 34.4784 57.2097C34.9582 57.0864 35.3988 56.8432 35.7589 56.5029C36.1189 56.1625 36.3865 55.7363 36.5366 55.2642C36.9057 55.3929 37.2968 55.4463 37.6869 55.4213C38.0769 55.3963 38.458 55.2933 38.8076 55.1186C39.1572 54.9438 39.4682 54.7007 39.7222 54.4036C39.9762 54.1066 40.1682 53.7617 40.2866 53.3892C40.8041 53.5694 41.3618 53.6008 41.8961 53.4796C42.4305 53.3585 42.9202 53.0898 43.3093 52.704C43.6985 52.3183 43.9715 51.831 44.0973 51.2977C44.2232 50.7644 44.1968 50.2065 44.0211 49.6875H45.7338C46.6639 49.6885 47.573 49.4118 48.3449 48.8929L49.7357 47.96C49.8901 47.8562 50.072 47.8009 50.2581 47.8011H50.625V55.3125C50.6247 55.5611 50.5259 55.7993 50.3501 55.9751C50.1744 56.1509 49.9361 56.2497 49.6875 56.25H40.3125V58.125H49.6875C50.4332 58.1242 51.148 57.8276 51.6753 57.3003C52.2026 56.773 52.4992 56.0582 52.5 55.3125V47.8011H58.125V45.9261H50.2581C49.7001 45.9255 49.1546 46.0915 48.6914 46.4028L47.3004 47.3358C46.8373 47.6471 46.2918 47.8131 45.7338 47.8125H42.5759L37.7476 42.9843C39.3717 43.031 40.9594 42.4983 42.2268 41.4816L42.7731 41.0446L41.6019 39.5804L41.0556 40.0175C40.0976 40.7854 38.8898 41.1725 37.6639 41.1046C36.438 41.0367 35.2803 40.5186 34.413 39.6496L33.8076 39.0442L29.3773 42.736C29.0303 43.025 28.5826 43.1644 28.1328 43.1234C27.683 43.0825 27.2679 42.8646 26.9788 42.5176C26.6897 42.1706 26.5502 41.723 26.591 41.2732C26.6319 40.8234 26.8497 40.4082 27.1967 40.119H27.1967ZM25.6168 31.875C25.3145 31.8749 25.0142 31.9236 24.7275 32.0194L16.8676 34.6392C16.7721 34.6711 16.6721 34.6873 16.5715 34.6873H16.5707L9.37501 34.6818V4.6875C9.37529 4.43895 9.47415 4.20066 9.64991 4.0249C9.82566 3.84915 10.064 3.75028 10.3125 3.75H49.6875C49.9361 3.75028 50.1744 3.84915 50.3501 4.0249C50.5259 4.20066 50.6247 4.43895 50.625 4.6875V34.6875H46.2678C46.1585 34.6876 46.0501 34.6684 45.9475 34.631L39.6176 32.3293C38.64 31.9747 37.6008 31.8215 36.5625 31.8789V31.875H25.6168ZM15.9375 47.9263C15.7296 47.9262 15.5263 47.8646 15.3535 47.7491C15.1806 47.6335 15.0459 47.4694 14.9663 47.2773C14.8868 47.0852 14.8659 46.8738 14.9065 46.6699C14.9471 46.466 15.0472 46.2787 15.1942 46.1316L17.0692 44.2566C17.2664 44.0597 17.5337 43.9492 17.8124 43.9493C18.0911 43.9494 18.3583 44.0602 18.5553 44.2572C18.7524 44.4543 18.8631 44.7215 18.8632 45.0002C18.8633 45.2789 18.7527 45.5462 18.5558 45.7433L16.6808 47.6183C16.5834 47.7163 16.4676 47.7939 16.34 47.8468C16.2124 47.8996 16.0756 47.9266 15.9375 47.9263ZM18.75 50.7388C18.5421 50.7387 18.3388 50.6771 18.166 50.5616C17.9931 50.446 17.8584 50.2819 17.7788 50.0898C17.6993 49.8977 17.6784 49.6863 17.719 49.4824C17.7596 49.2785 17.8597 49.0912 18.0067 48.9441L19.8817 47.0691L20.8192 46.1316C21.0164 45.9347 21.2837 45.8242 21.5624 45.8243C21.8411 45.8244 22.1083 45.9352 22.3053 46.1322C22.5024 46.3293 22.6131 46.5965 22.6132 46.8752C22.6133 47.1539 22.5027 47.4212 22.3058 47.6183L19.4933 50.4308C19.3959 50.5288 19.2801 50.6064 19.1525 50.6593C19.0249 50.7121 18.8881 50.7391 18.75 50.7388ZM22.3058 53.2434C22.1086 53.4403 21.8413 53.5508 21.5626 53.5507C21.2839 53.5506 21.0167 53.4398 20.8197 53.2428C20.6226 53.0457 20.5119 52.7785 20.5118 52.4998C20.5117 52.2211 20.6223 51.9538 20.8192 51.7566L23.6317 48.9441C23.8289 48.7472 24.0962 48.6367 24.3749 48.6368C24.6536 48.6369 24.9208 48.7477 25.1178 48.9447C25.3149 49.1418 25.4256 49.409 25.4257 49.6877C25.4258 49.9664 25.3152 50.2337 25.1183 50.4309L23.2433 52.3059L22.3058 53.2434ZM26.0558 55.1184C25.8586 55.3153 25.5913 55.4258 25.3126 55.4257C25.0339 55.4256 24.7667 55.3148 24.5697 55.1178C24.3726 54.9207 24.2619 54.6535 24.2618 54.3748C24.2617 54.0961 24.3723 53.8288 24.5692 53.6316L26.4442 51.7566C26.6414 51.5597 26.9087 51.4492 27.1874 51.4493C27.4661 51.4494 27.7333 51.5602 27.9303 51.7572C28.1274 51.9543 28.2381 52.2215 28.2382 52.5002C28.2383 52.7789 28.1277 53.0462 27.9308 53.2434L26.0558 55.1184ZM29.8058 56.0559C29.7082 56.1535 29.5923 56.2309 29.4648 56.2837C29.3372 56.3366 29.2006 56.3638 29.0625 56.3638C28.9245 56.3638 28.7878 56.3366 28.6602 56.2837C28.5327 56.2309 28.4168 56.1535 28.3192 56.0559L28.0446 55.7812L29.2567 54.5691C29.3484 54.4771 29.4338 54.3792 29.5125 54.2758L29.8058 54.5691C30.0027 54.7664 30.1132 55.0338 30.1132 55.3125C30.1132 55.5912 30.0027 55.8586 29.8058 56.0559Z" fill="#0D734C"/>
<path d="M12.1875 24.375H23.4375V26.25H12.1875V24.375Z" fill="#0D734C"/>
<path d="M15 28.125H19.6875V30H15V28.125Z" fill="#0D734C"/>
<path d="M36.5625 24.375H47.8125V26.25H36.5625V24.375Z" fill="#0D734C"/>
<path d="M39.375 28.125H44.0625V30H39.375V28.125Z" fill="#0D734C"/>
<path d="M23.4375 6.5625H36.5625V8.4375H23.4375V6.5625Z" fill="#0D734C"/>
<path d="M12.1875 11.25H47.8125V13.125H12.1875V11.25Z" fill="#0D734C"/>
<path d="M12.1875 15H47.8125V16.875H12.1875V15Z" fill="#0D734C"/>
<path d="M12.1875 18.75H31.875V20.625H12.1875V18.75Z" fill="#0D734C"/>
</svg>
