<svg width="60" height="60" viewBox="0 0 60 60" fill="none" xmlns="http://www.w3.org/2000/svg">
<path d="M55.999 1H4.00102C1.79496 1 0 2.79508 0 5.00102V38C0 38.5519 0.448008 38.9999 0.999961 38.9999H58.9999C59.5519 38.9999 59.9999 38.5519 59.9999 38V5.00102C60 2.79508 58.205 1 55.999 1ZM58 37H2.00004V5.00102C2.00004 3.89699 2.89805 3.00004 4.00102 3.00004H55.999C57.102 3.00004 58 3.89699 58 5.00102V37Z" fill="#0D734C"/>
<path d="M59 37H0.999961C0.448008 37 0 37.448 0 38V42.9989C0 45.205 1.79496 47 4.00102 47H55.999C58.205 47 60 45.205 60 42.9989V38C60 37.448 59.552 37 59 37ZM58 42.9991C58 44.1031 57.102 45 55.999 45H4.00102C2.89805 45 2.00004 44.1031 2.00004 42.9991V39H58.0001V42.9991H58Z" fill="#0D734C"/>
<path d="M33 41H27C26.448 41 26 41.448 26 42C26 42.5519 26.448 42.9999 27 42.9999H33C33.552 42.9999 34 42.5519 34 42C34 41.448 33.552 41 33 41Z" fill="#0D734C"/>
<path d="M55 5H5.00004C4.44809 5 4.00008 5.44801 4.00008 5.99996V38C4.00008 38.552 4.44809 39 5.00004 39H55.0001C55.552 39 56 38.552 56 38V5.99996C56 5.44801 55.552 5 55 5ZM54 36.9999H6V6.99992H54V36.9999Z" fill="#0D734C"/>
<path d="M43 53H17C15.3461 53 14 54.346 14 56C14 57.654 15.3461 59 17 59H43.0001C44.6541 59 46.0001 57.654 46.0001 56C46.0001 54.346 44.6539 53 43 53ZM43 57H17C16.4481 57 16.0001 56.551 16.0001 56C16.0001 55.449 16.4481 55 17 55H43.0001C43.552 55 44 55.449 44 56C44 56.551 43.552 57 43 57Z" fill="#0D734C"/>
<path d="M41 52.9999C37.682 52.9999 36 50.6449 36 46C36 45.448 35.552 45 35 45H25.0001C24.4481 45 24.0001 45.448 24.0001 46C24.0001 50.6449 22.3181 52.9999 19.0001 52.9999C18.4481 52.9999 18.0001 53.4479 18.0001 53.9999C18.0001 54.5518 18.4481 54.9998 19.0001 54.9998H41C41.552 54.9998 42 54.5518 42 53.9999C42 53.4479 41.552 52.9999 41 52.9999ZM23.871 52.9999C25.102 51.636 25.827 49.6049 25.973 46.9999H34.028C34.1729 49.6049 34.898 51.636 36.13 52.9999H23.871Z" fill="#0D734C"/>
<path d="M47.784 30.464L45.3701 28.05L46.713 26.707C46.9621 26.458 47.062 26.096 46.976 25.755C46.89 25.414 46.631 25.144 46.294 25.042L36.294 22.042C35.9411 21.936 35.5601 22.033 35.3 22.2931C35.0391 22.5531 34.9431 22.935 35.049 23.287L38.049 33.287C38.15 33.625 38.421 33.884 38.762 33.97C39.102 34.054 39.465 33.9559 39.714 33.707L41.128 32.292L43.542 34.707C43.729 34.8949 43.984 34.9999 44.2489 34.9999C44.5139 34.9999 44.7689 34.8949 44.9559 34.707L47.7839 31.8779C48.175 31.487 48.175 30.855 47.784 30.464ZM44.2489 32.586L42.051 30.387C41.796 30.132 41.462 30.0049 41.128 30.0049C40.793 30.0049 40.459 30.1329 40.205 30.3859L39.483 31.1079L37.498 24.4909L44.115 26.4759L43.341 27.25C43.1279 27.464 43.011 27.748 43.011 28.05C43.011 28.3531 43.129 28.639 43.343 28.851L45.6629 31.1709L44.2489 32.586Z" fill="#0D734C"/>
<path d="M42 9H14C13.4481 9 13.0001 9.44801 13.0001 9.99996V15C13.0001 15.552 13.4481 16 14 16H42C42.552 16 43 15.552 43 15V9.99996C43 9.44801 42.552 9 42 9ZM41 14H15V11H41V14Z" fill="#0D734C"/>
<path d="M26 20H18C17.448 20 17 20.448 17 21V24.9999C17 25.5519 17.448 25.9999 18 25.9999H26C26.552 25.9999 27 25.5519 27 24.9999V21C27 20.448 26.552 20 26 20ZM25 24H19V21.9999H25V24Z" fill="#0D734C"/>
<path d="M42 9H14C13.4481 9 13.0001 9.44801 13.0001 9.99996V28.9999C13.0001 29.5519 13.4481 29.9999 14 29.9999H37.8061C38.1231 29.9999 38.42 29.8509 38.6081 29.5969C38.7971 29.3429 38.8552 29.0149 38.7641 28.7119L37.4981 24.4909L41.7131 25.7559C42.0162 25.847 42.3442 25.789 42.5971 25.6C42.851 25.412 43.0001 25.114 43.0001 24.7979V9.99996C43 9.44801 42.552 9 42 9ZM41 23.454L36.293 22.042C35.94 21.936 35.559 22.033 35.299 22.293C35.038 22.554 34.942 22.935 35.048 23.2881L36.462 28.0001H15V11H41V23.454Z" fill="#0D734C"/>
</svg>
