<svg width="60" height="60" viewBox="0 0 60 60" fill="none" xmlns="http://www.w3.org/2000/svg">
<g clip-path="url(#clip0_201_1251)">
<path d="M59.1193 15.9686C57.5331 15.9686 56.2426 14.6782 56.2426 13.0918C56.2426 12.6054 55.8484 12.2112 55.362 12.2112C54.8755 12.2112 54.4813 12.6054 54.4813 13.0918C54.4813 14.6781 53.1909 15.9686 51.6046 15.9686C51.1181 15.9686 50.7239 16.3628 50.7239 16.8492C50.7239 17.3357 51.1181 17.7299 51.6046 17.7299C53.1908 17.7299 54.4813 19.0204 54.4813 20.6066C54.4813 21.0931 54.8755 21.4873 55.362 21.4873C55.8484 21.4873 56.2426 21.0931 56.2426 20.6066C56.2426 19.0204 57.533 17.7299 59.1193 17.7299C59.6058 17.7299 60 17.3357 60 16.8492C60 16.3628 59.6058 15.9686 59.1193 15.9686ZM55.3621 17.8903C55.0724 17.4908 54.7204 17.1389 54.321 16.8492C54.7205 16.5595 55.0725 16.2075 55.3621 15.8081C55.6518 16.2076 56.0038 16.5595 56.4032 16.8492C56.0037 17.1389 55.6518 17.4909 55.3621 17.8903Z" fill="#0D734C"/>
<path d="M8.39531 15.9686C6.80917 15.9686 5.51859 14.6782 5.51859 13.0918C5.51859 12.6054 5.12425 12.2112 4.63792 12.2112C4.1516 12.2112 3.75726 12.6054 3.75726 13.0918C3.75726 14.6781 2.46667 15.9686 0.880542 15.9686C0.394214 15.9686 -0.00012207 16.3628 -0.00012207 16.8492C-0.00012207 17.3357 0.394214 17.7299 0.880542 17.7299C2.46667 17.7299 3.75726 19.0204 3.75726 20.6066C3.75726 21.0931 4.1516 21.4873 4.63792 21.4873C5.12425 21.4873 5.51859 21.0931 5.51859 20.6066C5.51859 19.0204 6.80917 17.7299 8.39531 17.7299C8.88164 17.7299 9.27597 17.3357 9.27597 16.8492C9.27597 16.3628 8.88164 15.9686 8.39531 15.9686ZM4.63792 17.8903C4.34824 17.4908 3.99632 17.1389 3.59683 16.8492C3.99644 16.5595 4.34835 16.2075 4.63792 15.8081C4.92761 16.2076 5.27953 16.5595 5.67902 16.8492C5.27964 17.1389 4.92761 17.4909 4.63792 17.8903Z" fill="#0D734C"/>
<path d="M34.6966 4.69664C32.5924 4.69664 30.8805 2.98488 30.8805 0.880547C30.8807 0.394219 30.4864 0 30 0C29.5137 0 29.1193 0.394219 29.1193 0.880664C29.1193 2.98488 27.4073 4.69676 25.3032 4.69676C24.8169 4.69676 24.4226 5.09098 24.4226 5.57742C24.4226 6.06387 24.8169 6.45809 25.3032 6.45809C27.4073 6.45809 29.1193 8.16996 29.1193 10.2742C29.1193 10.7606 29.5137 11.1548 30 11.1548C30.4864 11.1548 30.8807 10.7606 30.8807 10.2742C30.8807 8.16996 32.5925 6.45809 34.6968 6.45809C35.1832 6.45809 35.5774 6.06387 35.5774 5.57742C35.5774 5.09098 35.1831 4.69664 34.6966 4.69664ZM30 7.26879C29.5646 6.59098 28.9863 6.01266 28.3084 5.5773C28.9863 5.14195 29.5646 4.56363 30 3.88582C30.4353 4.56363 31.0137 5.14195 31.6915 5.5773C31.0137 6.01266 30.4353 6.59098 30 7.26879Z" fill="#0D734C"/>
<path d="M48.3347 29.7069L44.9091 20.0009C44.6528 19.2746 43.963 18.7866 43.1929 18.7866H16.5723C15.802 18.7866 15.1124 19.2746 14.8561 20.0008L11.4305 29.7069C11.2315 30.2706 11.6639 30.8806 12.2609 30.8806H47.5043C47.79 30.8806 48.058 30.7419 48.223 30.5087C48.3881 30.2753 48.4299 29.9764 48.3347 29.7069ZM13.5055 29.1193L16.5169 20.587C16.5249 20.5644 16.5482 20.5478 16.5722 20.5478H43.1929C43.2169 20.5478 43.2402 20.5644 43.2483 20.5871L46.2597 29.1193H13.5055Z" fill="#0D734C"/>
<path d="M46.7906 41.3308C43.6631 41.3308 41.2133 42.9555 41.2133 45.0295C41.2133 47.1035 43.6631 48.7282 46.7906 48.7282C49.9181 48.7282 52.3679 47.1035 52.3679 45.0295C52.3679 42.9555 49.9181 41.3308 46.7906 41.3308ZM46.7906 46.9668C44.6065 46.9668 42.9745 45.944 42.9745 45.0295C42.9745 44.115 44.6064 43.0921 46.7906 43.0921C48.9748 43.0921 50.6067 44.115 50.6067 45.0295C50.6067 45.944 48.9748 46.9668 46.7906 46.9668Z" fill="#0D734C"/>
<path d="M12.9745 41.3308C9.84702 41.3308 7.39722 42.9555 7.39722 45.0295C7.39722 47.1035 9.84702 48.7282 12.9745 48.7282C16.102 48.7282 18.5518 47.1035 18.5518 45.0295C18.5518 42.9555 16.102 41.3308 12.9745 41.3308ZM12.9745 46.9668C10.7905 46.9668 9.15843 45.944 9.15843 45.0295C9.15843 44.115 10.7904 43.0921 12.9745 43.0921C15.1587 43.0921 16.7906 44.115 16.7906 45.0295C16.7906 45.944 15.1587 46.9668 12.9745 46.9668Z" fill="#0D734C"/>
<path d="M58.0627 28.1802H53.366C52.962 28.1802 52.6097 28.4552 52.5117 28.8472L51.8931 31.3216L47.5664 19.0631C46.9132 17.2123 45.1556 15.9688 43.1929 15.9688H16.5723C14.6095 15.9688 12.852 17.2123 12.1988 19.0632L7.87219 31.3217L7.25356 28.8472C7.15547 28.4551 6.80321 28.1802 6.39926 28.1802H1.7025C1.21617 28.1802 0.821838 28.5744 0.821838 29.0608V32.8182C0.821838 33.3046 1.21617 33.6989 1.7025 33.6989H6.5666L3.56438 37.9019C2.9993 38.693 2.70059 39.6254 2.70059 40.5977V51.6049C2.70059 53.1301 3.44086 54.4855 4.58074 55.3312C4.58039 55.3415 4.57922 55.3517 4.57922 55.3621V58.1802C4.57922 59.1837 5.39567 60.0001 6.39914 60.0001H12.0352C13.0388 60.0001 13.8551 59.1836 13.8551 58.1802V56.2428H45.9098V58.1802C45.9098 59.1837 46.7263 60.0001 47.7298 60.0001H53.3658C54.3694 60.0001 55.1857 59.1836 55.1857 58.1802V55.3621C55.1857 55.3517 55.1845 55.3415 55.1842 55.3312C56.3241 54.4855 57.0643 53.1301 57.0643 51.6049V40.5977C57.0643 39.6253 56.7655 38.6929 56.2004 37.9019L53.1982 33.6989H58.0624C58.5489 33.6989 58.9431 33.3046 58.9431 32.8182V29.0608C58.9432 28.5743 58.5491 28.1802 58.0627 28.1802ZM2.58317 31.9374V29.9414H5.7116L6.21059 31.9374H2.58317ZM12.094 58.1802C12.094 58.2125 12.0677 58.2389 12.0353 58.2389H6.39926C6.36692 58.2389 6.34055 58.2125 6.34055 58.1802V56.2428H7.33864H12.094V58.1802ZM53.4246 58.1802C53.4246 58.2125 53.3982 58.2389 53.3659 58.2389H47.7299C47.6975 58.2389 47.6712 58.2125 47.6712 58.1802V56.2428H52.4265H53.4246V58.1802ZM52.4266 54.4815H7.33852C6.05942 54.4815 4.97309 53.6422 4.6002 52.4854H55.1648C54.792 53.6422 53.7057 54.4815 52.4266 54.4815ZM37.4559 44.9708V46.9668H22.3092V44.9708H37.4559ZM22.4476 43.2095C22.8205 42.0527 23.9067 41.2134 25.1859 41.2134H34.5793C35.8584 41.2134 36.9448 42.0527 37.3177 43.2095H22.4476ZM37.4559 48.7281V50.7241H22.3092V48.7281H37.4559ZM54.7676 38.9255C55.1181 39.4162 55.3034 39.9944 55.3034 40.5976V50.7242H39.2173V44.0901C39.2173 41.5327 37.1366 39.4522 34.5793 39.4522H25.1859C22.6286 39.4522 20.548 41.5328 20.548 44.0901V50.7242H4.4618V40.5976C4.4618 39.9944 4.64707 39.4162 4.99758 38.9255L8.73106 33.6988H41.1545C41.6409 33.6988 42.0352 33.3045 42.0352 32.8181C42.0352 32.3316 41.6409 31.9374 41.1545 31.9374H9.52254L13.8595 19.6493C14.2648 18.5014 15.3548 17.73 16.5723 17.73H43.193C44.4103 17.73 45.5004 18.5013 45.9057 19.6493L50.2426 31.9374H44.9119C44.4254 31.9374 44.0312 32.3316 44.0312 32.8181C44.0312 33.3045 44.4254 33.6988 44.9119 33.6988H51.0341L54.7676 38.9255ZM57.182 31.9374H53.5545L54.0534 29.9414H57.182V31.9374Z" fill="#0D734C"/>
<path d="M15.7925 38.5127H10.1565C9.67018 38.5127 9.27585 38.9069 9.27585 39.3934C9.27585 39.8798 9.67018 40.274 10.1565 40.274H15.7925C16.2789 40.274 16.6732 39.8798 16.6732 39.3934C16.6732 38.9069 16.2789 38.5127 15.7925 38.5127Z" fill="#0D734C"/>
<path d="M49.6086 38.5127H43.9726C43.4862 38.5127 43.0919 38.9069 43.0919 39.3934C43.0919 39.8798 43.4862 40.274 43.9726 40.274H49.6086C50.0951 40.274 50.4893 39.8798 50.4893 39.3934C50.4893 38.9069 50.0951 38.5127 49.6086 38.5127Z" fill="#0D734C"/>
</g>
<defs>
<clipPath id="clip0_201_1251">
<rect width="60" height="60" fill="white"/>
</clipPath>
</defs>
</svg>
