<svg width="31" height="28" viewBox="0 0 31 28" fill="none" xmlns="http://www.w3.org/2000/svg">
<path d="M29.3974 9.08794H24.8554L23.8875 6.50672C23.7468 6.1314 23.388 5.88281 22.9872 5.88281H14.0128C13.612 5.88281 13.2532 6.1314 13.1125 6.50672L12.1446 9.08794H7.60256C6.7175 9.08794 6 9.80544 6 10.6905V23.511C6 24.3961 6.7175 25.1136 7.60256 25.1136H29.3974C30.2825 25.1136 31 24.3961 31 23.511V10.6905C31 9.80544 30.2825 9.08794 29.3974 9.08794ZM18.5 11.011C21.8579 11.011 24.5897 13.7429 24.5897 17.1008C24.5897 20.4586 21.8579 23.1905 18.5 23.1905C15.1421 23.1905 12.4103 20.4586 12.4103 17.1008C12.4103 13.7429 15.1421 11.011 18.5 11.011Z" fill="#0D734C"/>
<path d="M14.332 17.1003C14.332 19.3978 16.2012 21.2669 18.4987 21.2669C20.7962 21.2669 22.6654 19.3978 22.6654 17.1003C22.6654 14.8028 20.7962 12.9336 18.4987 12.9336C16.2012 12.9336 14.332 14.8028 14.332 17.1003Z" fill="#0D734C"/>
<path d="M5.88889 1.4H5.28889V2V5.28889L2 5.28889H1.4V5.88889L1.4 8.11111V8.71111H2H5.28889V12V12.6H5.88889H8.11111H8.71111V12V8.71111H12H12.6V8.11111V5.88889V5.28889H12L8.71111 5.28889V2V1.4H8.11111H5.88889Z" fill="white" stroke="#0D734C" stroke-width="1.2"/>
</svg>
