<svg width="20" height="20" viewBox="0 0 20 20" fill="none" xmlns="http://www.w3.org/2000/svg">
<g clip-path="url(#clip0_54_5517)">
<path d="M10 20C15.5228 20 20 15.5228 20 10C20 4.47715 15.5228 0 10 0C4.47715 0 0 4.47715 0 10C0 15.5228 4.47715 20 10 20Z" fill="#FFBE18"/>
<path d="M10.2526 12.2398C10.6943 12.6815 10.6943 13.4386 10.2526 13.8802L9.33779 14.795C8.89615 15.2367 8.13905 15.2367 7.69741 14.795L3.69109 10.7572C3.24945 10.3155 3.24945 9.55843 3.69109 9.11679L4.60592 8.20196C5.04756 7.76032 5.80466 7.76032 6.2463 8.20196L10.2526 12.2398Z" fill="white"/>
<path d="M13.7542 5.26812C14.1958 4.82648 14.9529 4.82648 15.3946 5.26812L16.3094 6.18295C16.751 6.62459 16.751 7.38168 16.3094 7.82333L9.36934 14.7318C8.9277 15.1735 8.17061 15.1735 7.72897 14.7318L6.81414 13.817C6.3725 13.3754 6.3725 12.6183 6.81414 12.1766L13.7542 5.26812Z" fill="white"/>
</g>
<defs>
<clipPath id="clip0_54_5517">
<rect width="20" height="20" fill="white"/>
</clipPath>
</defs>
</svg>
