<svg width="60" height="60" viewBox="0 0 60 60" fill="none" xmlns="http://www.w3.org/2000/svg">
<g clip-path="url(#clip0_110_6002)">
<path d="M59.9996 30L53.2073 22.4588L54.2708 12.363L44.3386 10.2604L39.2723 1.45923L29.9996 5.60347L28.748 30L29.9996 54.3965L39.2724 58.5407L44.3386 49.7397L54.2708 47.637L53.2073 37.5411L59.9996 30Z" fill="#035C3A"/>
<path d="M20.7272 1.45923L15.661 10.2604L5.72879 12.3631L6.79228 22.4588L0 30L6.79228 37.5411L5.72879 47.637L15.661 49.7397L20.7273 58.5407L30.0001 54.3965V5.60347L20.7272 1.45923Z" fill="#0D734C"/>
<path d="M42.5782 23.4311L39.9523 21.0872L30.0016 32.2355L28.75 35.006L30.0016 37.5214L42.5782 23.4311Z" fill="#F7F0EB"/>
<path d="M19.5435 27.3491L17.0547 29.8381L27.5188 40.3023L30.001 37.5215V32.2355L27.3736 35.1791L19.5435 27.3491Z" fill="#FFFBF5"/>
</g>
<defs>
<clipPath id="clip0_110_6002">
<rect width="60" height="60" fill="white"/>
</clipPath>
</defs>
</svg>
