<svg xmlns="http://www.w3.org/2000/svg" display="none">

	<symbol id="tab1" viewBox="0 0 40 40">
		<path
			d="M30.063 23.0809C29.6072 23.081 29.1615 22.9459 28.7825 22.6928C28.4034 22.4396 28.108 22.0797 27.9335 21.6585C27.759 21.2374 27.7133 20.774 27.8023 20.327C27.8912 19.8799 28.1106 19.4692 28.433 19.1469C28.7553 18.8246 29.166 18.6051 29.613 18.5162C30.0601 18.4273 30.5235 18.473 30.9446 18.6474C31.3657 18.8219 31.7256 19.1174 31.9788 19.4964C32.232 19.8755 32.3671 20.3211 32.367 20.7769C32.3663 21.3878 32.1234 21.9734 31.6914 22.4054C31.2595 22.8373 30.6739 23.0803 30.063 23.0809V23.0809ZM30.063 19.4724C29.805 19.4723 29.5527 19.5487 29.3381 19.692C29.1235 19.8353 28.9563 20.039 28.8574 20.2774C28.7586 20.5157 28.7327 20.778 28.783 21.0311C28.8333 21.2842 28.9575 21.5167 29.1399 21.6992C29.3223 21.8817 29.5548 22.0059 29.8078 22.0563C30.0609 22.1067 30.3232 22.0809 30.5616 21.9822C30.8 21.8835 31.0038 21.7163 31.1471 21.5017C31.2905 21.2872 31.367 21.035 31.367 20.7769C31.3667 20.4311 31.2293 20.0995 30.9848 19.855C30.7403 19.6104 30.4088 19.4728 30.063 19.4724V19.4724Z" />
		<path
			d="M9.95349 23.0809C9.49768 23.0809 9.05211 22.9458 8.67312 22.6925C8.29414 22.4393 7.99877 22.0793 7.82436 21.6582C7.64995 21.2371 7.60434 20.7737 7.6933 20.3267C7.78226 19.8796 8.0018 19.469 8.32414 19.1467C8.64648 18.8244 9.05715 18.605 9.50421 18.5161C9.95127 18.4273 10.4146 18.473 10.8357 18.6475C11.2568 18.822 11.6167 19.1174 11.8699 19.4965C12.123 19.8755 12.2581 20.3211 12.258 20.7769C12.2573 21.3879 12.0143 21.9736 11.5823 22.4055C11.1502 22.8375 10.5644 23.0804 9.95349 23.0809V23.0809ZM9.95349 19.4724C9.69548 19.4724 9.44327 19.5489 9.22875 19.6923C9.01422 19.8356 8.84702 20.0393 8.74829 20.2777C8.64955 20.5161 8.62372 20.7784 8.67405 21.0314C8.72439 21.2845 8.84863 21.5169 9.03107 21.6993C9.2135 21.8818 9.44594 22.006 9.69899 22.0564C9.95204 22.1067 10.2143 22.0809 10.4527 21.9821C10.6911 21.8834 10.8948 21.7162 11.0381 21.5017C11.1815 21.2871 11.258 21.0349 11.258 20.7769C11.2576 20.4311 11.12 20.0995 10.8755 19.8549C10.6309 19.6104 10.2993 19.4728 9.95349 19.4724V19.4724Z" />
		<path
			d="M26.666 24.1455H13.497C13.4079 24.1455 13.3205 24.1216 13.2438 24.0764C13.167 24.0312 13.1037 23.9663 13.0604 23.8885C13.0172 23.8107 12.9955 23.7227 12.9976 23.6336C12.9997 23.5446 13.0256 23.4577 13.0725 23.382L14.539 21.016C14.5839 20.9438 14.6465 20.8842 14.7209 20.8429C14.7953 20.8016 14.8789 20.78 14.964 20.78H25.2C25.2851 20.78 25.3687 20.8016 25.4431 20.8429C25.5175 20.8842 25.5801 20.9438 25.625 21.016L27.092 23.382C27.139 23.4578 27.1648 23.5447 27.1669 23.6337C27.169 23.7228 27.1473 23.8109 27.1039 23.8887C27.0606 23.9666 26.9972 24.0314 26.9204 24.0766C26.8436 24.1217 26.7561 24.1455 26.667 24.1455H26.666ZM14.3955 23.1455H25.7675L24.921 21.78H15.242L14.3955 23.1455Z" />
		<path
			d="M27.9695 25.9609H11.9325C11.7999 25.9609 11.6727 25.9083 11.5789 25.8145C11.4852 25.7207 11.4325 25.5935 11.4325 25.4609C11.4325 25.3283 11.4852 25.2012 11.5789 25.1074C11.6727 25.0136 11.7999 24.9609 11.9325 24.9609H27.9695C28.1021 24.9609 28.2293 25.0136 28.323 25.1074C28.4168 25.2012 28.4695 25.3283 28.4695 25.4609C28.4695 25.5935 28.4168 25.7207 28.323 25.8145C28.2293 25.9083 28.1021 25.9609 27.9695 25.9609Z" />
		<path
			d="M33.0385 28.1416H6.97802C6.46105 28.1409 5.96544 27.9352 5.59989 27.5697C5.23434 27.2041 5.02868 26.7085 5.02802 26.1915V21.709C5.03013 20.3412 5.57455 19.03 6.54192 18.0629C7.50929 17.0958 8.82065 16.5518 10.1885 16.55H29.8275C31.1955 16.5516 32.5071 17.0956 33.4746 18.0627C34.4422 19.0298 34.9868 20.3411 34.989 21.709V26.191C34.9885 26.7082 34.7828 27.204 34.4171 27.5697C34.0515 27.9354 33.5557 28.141 33.0385 28.1416V28.1416ZM10.1885 17.55C9.08532 17.5512 8.02764 17.99 7.24756 18.7701C6.46748 19.5502 6.02871 20.6078 6.02752 21.7111V26.1931C6.02752 26.445 6.1276 26.6866 6.30576 26.8648C6.48392 27.043 6.72556 27.143 6.97752 27.143H33.0385C33.2905 27.143 33.5321 27.043 33.7103 26.8648C33.8884 26.6866 33.9885 26.445 33.9885 26.1931V21.709C33.9867 20.6062 33.5476 19.5492 32.7676 18.7695C31.9876 17.9899 30.9303 17.5514 29.8275 17.55H10.1885Z" />
		<path
			d="M31.716 30.5536H29.0105C28.7137 30.5532 28.4292 30.4351 28.2193 30.2253C28.0095 30.0154 27.8914 29.7309 27.891 29.4341V27.6416C27.891 27.509 27.9437 27.3818 28.0374 27.288C28.1312 27.1943 28.2584 27.1416 28.391 27.1416H32.3355C32.4681 27.1416 32.5953 27.1943 32.689 27.288C32.7828 27.3818 32.8355 27.509 32.8355 27.6416V29.4341C32.8351 29.7309 32.717 30.0154 32.5072 30.2253C32.2973 30.4351 32.0128 30.5532 31.716 30.5536V30.5536ZM28.891 28.1416V29.4341C28.8911 29.4658 28.9038 29.4961 28.9261 29.5185C28.9485 29.5408 28.9788 29.5535 29.0105 29.5536H31.716C31.7476 29.5535 31.778 29.5408 31.8003 29.5185C31.8227 29.4961 31.8354 29.4658 31.8355 29.4341V28.1416H28.891Z" />
		<path
			d="M11.006 30.5536H8.29998C8.00315 30.5533 7.71856 30.4353 7.50867 30.2254C7.29878 30.0155 7.18075 29.7309 7.18048 29.4341V27.6416C7.18048 27.509 7.23316 27.3818 7.32693 27.288C7.4207 27.1943 7.54787 27.1416 7.68048 27.1416H11.625C11.7576 27.1416 11.8848 27.1943 11.9785 27.288C12.0723 27.3818 12.125 27.509 12.125 27.6416V29.4341C12.1247 29.7308 12.0068 30.0154 11.797 30.2252C11.5872 30.4351 11.3027 30.5532 11.006 30.5536V30.5536ZM8.18098 28.1416V29.4341C8.18098 29.4658 8.19357 29.4962 8.21598 29.5186C8.23839 29.541 8.26879 29.5536 8.30048 29.5536H11.006C11.0216 29.5536 11.0372 29.5505 11.0516 29.5445C11.0661 29.5385 11.0792 29.5297 11.0903 29.5186C11.1014 29.5075 11.1101 29.4943 11.1161 29.4798C11.122 29.4653 11.125 29.4498 11.125 29.4341V28.1416H8.18098Z" />
		<path
			d="M31.82 17.9945C31.7225 17.9948 31.627 17.9665 31.5454 17.9132C31.4638 17.8599 31.3995 17.7839 31.3605 17.6945L28.7415 11.65C28.4955 11.2786 28.1611 10.9741 27.7684 10.7637C27.3757 10.5533 26.937 10.4437 26.4915 10.4445H13.5265C13.081 10.4439 12.6424 10.5536 12.2497 10.764C11.8571 10.9744 11.5227 11.2788 11.2765 11.65L8.65599 17.6925C8.63049 17.7537 8.5931 17.8091 8.54599 17.8557C8.49888 17.9023 8.44299 17.939 8.38156 17.9638C8.32014 17.9885 8.2544 18.0009 8.18817 18C8.12193 17.9992 8.05653 17.9852 7.99575 17.9589C7.93497 17.9325 7.88003 17.8944 7.83412 17.8466C7.78821 17.7989 7.75224 17.7425 7.7283 17.6808C7.70437 17.619 7.69294 17.5531 7.69469 17.4869C7.69644 17.4207 7.71133 17.3555 7.73849 17.295L10.3735 11.215C10.3847 11.1898 10.3977 11.1654 10.4125 11.142C10.7476 10.6209 11.2085 10.1924 11.7527 9.89607C12.2969 9.59977 12.9069 9.44518 13.5265 9.44654H26.49C27.1096 9.44518 27.7196 9.59983 28.2637 9.89623C28.8078 10.1926 29.2686 10.6212 29.6035 11.1425C29.6185 11.1656 29.6316 11.1898 29.6425 11.215L32.2785 17.296C32.3117 17.3722 32.3254 17.4553 32.3185 17.5381C32.3115 17.6208 32.284 17.7005 32.2385 17.77C32.193 17.8395 32.1309 17.8965 32.0578 17.936C31.9848 17.9754 31.903 17.9961 31.82 17.996V17.9945Z" />
		<path
			d="M32.761 17.4304H31.455C31.3224 17.4304 31.1952 17.3777 31.1015 17.284C31.0077 17.1902 30.955 17.063 30.955 16.9304C30.955 16.7978 31.0077 16.6706 31.1015 16.5769C31.1952 16.4831 31.3224 16.4304 31.455 16.4304H32.761C32.8936 16.4304 33.0208 16.4831 33.1146 16.5769C33.2083 16.6706 33.261 16.7978 33.261 16.9304C33.261 17.063 33.2083 17.1902 33.1146 17.284C33.0208 17.3777 32.8936 17.4304 32.761 17.4304Z" />
		<path
			d="M35.835 17.43H32.761C32.6284 17.43 32.5012 17.3773 32.4074 17.2835C32.3137 17.1898 32.261 17.0626 32.261 16.93V14.72C32.261 14.5874 32.3137 14.4602 32.4074 14.3664C32.5012 14.2726 32.6284 14.22 32.761 14.22H35.2C35.559 14.2204 35.9031 14.3631 36.157 14.617C36.4108 14.8708 36.5536 15.215 36.554 15.574V16.712C36.5537 16.9025 36.4779 17.0851 36.343 17.2197C36.2082 17.3544 36.0255 17.43 35.835 17.43V17.43ZM33.261 16.43H35.5535V15.574C35.5534 15.4801 35.516 15.3902 35.4497 15.3238C35.3833 15.2574 35.2933 15.2201 35.1995 15.22H33.261V16.43Z" />
		<path
			d="M8.54501 17.4304H7.23901C7.10641 17.4304 6.97923 17.3777 6.88546 17.284C6.79169 17.1902 6.73901 17.063 6.73901 16.9304C6.73901 16.7978 6.79169 16.6706 6.88546 16.5769C6.97923 16.4831 7.10641 16.4304 7.23901 16.4304H8.54501C8.67762 16.4304 8.8048 16.4831 8.89857 16.5769C8.99234 16.6706 9.04501 16.7978 9.04501 16.9304C9.04501 17.063 8.99234 17.1902 8.89857 17.284C8.8048 17.3777 8.67762 17.4304 8.54501 17.4304Z" />
		<path
			d="M7.23897 17.43H4.16497C3.97454 17.4298 3.79194 17.3542 3.65724 17.2196C3.52254 17.085 3.44674 16.9024 3.44647 16.712V15.574C3.44687 15.2151 3.58958 14.871 3.84331 14.6172C4.09704 14.3633 4.44108 14.2205 4.79997 14.22H7.23847C7.37108 14.22 7.49826 14.2726 7.59203 14.3664C7.68579 14.4602 7.73847 14.5874 7.73847 14.72V16.93C7.73847 17.0625 7.68586 17.1896 7.5922 17.2833C7.49854 17.3771 7.37149 17.4298 7.23897 17.43ZM4.44647 16.43H6.73897V15.22H4.79997C4.70613 15.2201 4.61616 15.2574 4.5498 15.3238C4.48344 15.3902 4.4461 15.4801 4.44597 15.574L4.44647 16.43Z" />
	</symbol>

	<symbol id="tab2" viewBox="0 0 40 40">
		<path
			d="M31.609 20.1849C31.5854 20.1849 31.5619 20.1849 31.5385 20.1849L22.2885 19.8189C21.823 19.8013 21.3825 19.6039 21.0595 19.2683C20.7365 18.9326 20.5562 18.4848 20.5565 18.0189V17.9639C20.5562 17.7201 20.6055 17.4788 20.7013 17.2546C20.7971 17.0304 20.9374 16.8281 21.1138 16.6597C21.2901 16.4914 21.4988 16.3607 21.7273 16.2754C21.9557 16.1902 22.199 16.1523 22.4425 16.1639L31.6925 16.5854C32.165 16.6045 32.611 16.8084 32.9345 17.1532C33.2581 17.4979 33.4332 17.956 33.4223 18.4287C33.4113 18.9014 33.2152 19.3509 32.876 19.6803C32.5368 20.0097 32.0818 20.1927 31.609 20.1899V20.1849ZM22.359 17.1569C22.1465 17.1578 21.9431 17.2429 21.7931 17.3935C21.6432 17.5441 21.559 17.7479 21.559 17.9604V18.0154C21.5581 18.2233 21.6382 18.4235 21.7823 18.5734C21.9264 18.7232 22.1232 18.8111 22.331 18.8184L31.581 19.1844C31.6925 19.189 31.8036 19.1703 31.9074 19.1294C32.0111 19.0885 32.1052 19.0263 32.1835 18.9469C32.2626 18.8681 32.3241 18.7735 32.364 18.6692C32.4039 18.5649 32.4213 18.4534 32.415 18.3419C32.4058 18.1421 32.3221 17.9531 32.1804 17.8119C32.0387 17.6708 31.8493 17.5878 31.6495 17.5794L22.3995 17.1579L22.359 17.1569Z" />
		<path
			d="M32.677 23.3675H32.668C32.6024 23.3664 32.5376 23.3523 32.4774 23.326C32.4171 23.2998 32.3627 23.262 32.3171 23.2147C32.2715 23.1675 32.2356 23.1117 32.2116 23.0506C32.1876 22.9894 32.1758 22.9242 32.177 22.8585C32.2075 21.2585 30.7455 20.066 30.731 20.054C30.6315 19.9702 30.5686 19.8508 30.5556 19.7213C30.5427 19.5918 30.5808 19.4624 30.6618 19.3605C30.7427 19.2586 30.8603 19.1923 30.9893 19.1757C31.1184 19.1591 31.2489 19.1935 31.353 19.2715C31.429 19.3315 33.2165 20.774 33.177 22.877C33.1745 23.008 33.1208 23.1327 33.0273 23.2245C32.9338 23.3162 32.808 23.3676 32.677 23.3675Z" />
		<path
			d="M35.9965 27.9471H26.7755C26.6751 27.9472 26.5769 27.9169 26.4939 27.8604C26.4109 27.8038 26.3468 27.7236 26.31 27.6301L25.463 25.4801C25.3072 25.097 25.2518 24.6805 25.3019 24.2699C25.3521 23.8594 25.5061 23.4685 25.7495 23.1341C26.8315 21.7616 29.4155 21.8796 29.706 21.8981C32.1315 21.9211 33.974 22.5846 35.156 23.8681C36.0502 24.8565 36.5293 26.1513 36.494 27.4836C36.4848 27.6094 36.4284 27.727 36.3362 27.8129C36.2439 27.8989 36.1226 27.9468 35.9965 27.9471ZM27.1155 26.9471H35.4785C35.391 26.049 35.0169 25.2028 34.4115 24.5336C33.422 23.4686 31.8265 22.9171 29.6705 22.8961C29 22.8581 27.178 22.9341 26.5335 23.7531C26.3966 23.9564 26.3132 24.191 26.2909 24.435C26.2686 24.6791 26.3082 24.9249 26.406 25.1496L27.1155 26.9471Z" />
		<path
			d="M18.395 25.385C16.623 25.385 14.73 24.9895 13.76 23.535C13.551 23.2605 12.11 21.121 13.998 16.6305L15.694 12.6845C15.7293 12.6025 15.7858 12.5314 15.8579 12.4786C15.9299 12.4259 16.0147 12.3934 16.1035 12.3845C16.1922 12.3763 16.2816 12.3916 16.3625 12.4289C16.4434 12.4662 16.5131 12.5242 16.5645 12.597L18.031 14.7155C18.1065 14.8245 18.1355 14.9591 18.1117 15.0896C18.088 15.2201 18.0133 15.3358 17.9043 15.4112C17.7952 15.4867 17.6606 15.5157 17.5301 15.4919C17.3997 15.4682 17.284 15.3935 17.2085 15.2845L16.2585 13.9085L14.9205 17.0215C13.1985 21.1215 14.5385 22.9065 14.553 22.924C14.5646 22.9382 14.5755 22.9531 14.5855 22.9685C15.9705 25.0685 20.5125 24.3315 22.145 23.8685C22.3111 23.8324 22.4646 23.7526 22.5894 23.6372C22.7143 23.5219 22.806 23.3752 22.855 23.2125C23.171 22.0895 21.678 19.97 21.13 19.3165C21.0448 19.2148 21.0035 19.0835 21.0151 18.9514C21.0267 18.8193 21.0904 18.6972 21.192 18.612C21.2937 18.5268 21.425 18.4854 21.5571 18.4971C21.6892 18.5087 21.8113 18.5723 21.8965 18.674C22.1465 18.974 24.3325 21.652 23.818 23.4835C23.722 23.8057 23.545 24.0981 23.304 24.3325C23.0629 24.567 22.7658 24.7359 22.441 24.823C21.121 25.1778 19.7618 25.3666 18.395 25.385Z" />
		<path
			d="M9.76651 22.889C9.69507 22.8892 9.62445 22.8738 9.55951 22.844C9.49953 22.817 9.44548 22.7784 9.40043 22.7305C9.35539 22.6826 9.32025 22.6262 9.29703 22.5647C9.27381 22.5031 9.26295 22.4376 9.2651 22.3719C9.26724 22.3061 9.28233 22.2414 9.30951 22.1815L12.6095 14.946H11.693C11.624 14.9462 11.5557 14.9322 11.4923 14.9047C11.429 14.8772 11.3721 14.8368 11.3251 14.7863C11.2781 14.7357 11.2422 14.6759 11.2194 14.6107C11.1967 14.5455 11.1877 14.4764 11.193 14.4075L11.421 11.4075C11.4325 11.28 11.4917 11.1616 11.5869 11.0759C11.682 10.9902 11.806 10.9436 11.934 10.9455L14.179 11.0105C14.2753 11.0137 14.3687 11.0444 14.448 11.099L15.652 11.9275V9.32754C15.652 9.23476 15.6778 9.14381 15.7266 9.06487C15.7753 8.98593 15.8451 8.92211 15.928 8.88054L17.5575 8.06554C17.6162 8.03616 17.6802 8.01863 17.7457 8.01396C17.8112 8.00929 17.877 8.01757 17.9393 8.03832C18.0016 8.05908 18.0592 8.0919 18.1088 8.13492C18.1585 8.17794 18.1991 8.23031 18.2285 8.28904C18.2579 8.34777 18.2754 8.41172 18.2801 8.47723C18.2848 8.54274 18.2765 8.60852 18.2557 8.67083C18.235 8.73314 18.2022 8.79075 18.1591 8.84037C18.1161 8.88999 18.0637 8.93066 18.005 8.96004L16.652 9.63654V12.879C16.652 12.9702 16.6271 13.0597 16.5799 13.1377C16.5327 13.2157 16.4651 13.2794 16.3844 13.3217C16.3036 13.3641 16.2129 13.3836 16.1218 13.3781C16.0308 13.3726 15.9431 13.3423 15.868 13.2905L14.0025 12.006L12.382 11.959L12.232 13.943H13.3865C13.4703 13.9429 13.5527 13.9639 13.6263 14.004C13.6998 14.044 13.7622 14.1019 13.8075 14.1724C13.8529 14.2428 13.8798 14.3235 13.8858 14.4071C13.8918 14.4906 13.8768 14.5743 13.842 14.6505L10.222 22.5965C10.1822 22.6839 10.118 22.7579 10.0373 22.8098C9.9565 22.8616 9.8625 22.8892 9.76651 22.889Z" />
		<path
			d="M13.1885 27.9471C13.1385 27.947 13.0888 27.9394 13.041 27.9246L3.8525 25.0896C3.77786 25.0665 3.70967 25.0263 3.65338 24.9722C3.59709 24.918 3.55427 24.8514 3.52837 24.7777C3.50246 24.704 3.49417 24.6253 3.50418 24.5478C3.51419 24.4703 3.54221 24.3963 3.586 24.3316C3.6095 24.2966 6.0255 20.8176 10.205 22.0816C10.2269 22.088 10.2483 22.096 10.269 22.1056C10.4115 22.1711 13.759 23.7511 13.6885 27.4556C13.6861 27.5866 13.6324 27.7115 13.5389 27.8033C13.4454 27.8952 13.3196 27.9466 13.1885 27.9466V27.9471ZM4.8675 24.3566L12.6525 26.7566C12.3395 24.3221 10.1525 23.1596 9.879 23.0251C9.00318 22.7511 8.06767 22.7307 7.18076 22.9664C6.29386 23.202 5.49182 23.684 4.8675 24.3566Z" />
		<path
			d="M26.4915 27.2261H13.1735C13.0409 27.2261 12.9137 27.1734 12.82 27.0796C12.7262 26.9859 12.6735 26.8587 12.6735 26.7261C12.6735 26.5935 12.7262 26.4663 12.82 26.3725C12.9137 26.2788 13.0409 26.2261 13.1735 26.2261H26.4915C26.6241 26.2261 26.7513 26.2788 26.8451 26.3725C26.9388 26.4663 26.9915 26.5935 26.9915 26.7261C26.9915 26.8587 26.9388 26.9859 26.8451 27.0796C26.7513 27.1734 26.6241 27.2261 26.4915 27.2261Z" />
		<path
			d="M31.6825 31.9845C30.6584 31.9833 29.6766 31.5759 28.9524 30.8517C28.2283 30.1275 27.8211 29.1456 27.82 28.1215C27.8197 27.8602 27.8471 27.5995 27.902 27.344C27.932 27.2166 28.0108 27.1061 28.1215 27.0361C28.2321 26.9662 28.3657 26.9424 28.4937 26.9699C28.6217 26.9974 28.7338 27.074 28.8059 27.1832C28.878 27.2924 28.9045 27.4255 28.8795 27.554C28.8398 27.7406 28.8199 27.9308 28.82 28.1215C28.815 28.5007 28.8853 28.877 29.027 29.2287C29.1686 29.5804 29.3787 29.9005 29.645 30.1704C29.9113 30.4403 30.2286 30.6545 30.5784 30.8008C30.9282 30.947 31.3036 31.0224 31.6828 31.0224C32.0619 31.0224 32.4373 30.947 32.7871 30.8008C33.1369 30.6545 33.4542 30.4403 33.7205 30.1704C33.9869 29.9005 34.1969 29.5804 34.3386 29.2287C34.4802 28.877 34.5505 28.5007 34.5455 28.1215C34.5459 27.9311 34.5259 27.7412 34.486 27.555C34.4721 27.4908 34.471 27.4246 34.4827 27.3599C34.4945 27.2953 34.5188 27.2337 34.5544 27.1785C34.59 27.1233 34.636 27.0756 34.69 27.0382C34.744 27.0008 34.8048 26.9744 34.869 26.9605C34.9332 26.9466 34.9995 26.9455 35.0641 26.9573C35.1287 26.969 35.1904 26.9933 35.2456 27.0289C35.3008 27.0645 35.3484 27.1106 35.3858 27.1645C35.4232 27.2185 35.4496 27.2793 35.4635 27.3435C35.5182 27.5993 35.5456 27.86 35.5455 28.1215C35.5443 29.1457 35.1369 30.1276 34.4127 30.8518C33.6886 31.576 32.7067 31.9833 31.6825 31.9845Z" />
		<path
			d="M8.17599 31.8999C7.35358 31.9009 6.55091 31.648 5.87763 31.1757C5.20435 30.7034 4.69331 30.0348 4.41431 29.2612C4.13531 28.4875 4.10197 27.6466 4.31884 26.8533C4.53571 26.06 4.99222 25.353 5.62599 24.8289C5.72823 24.744 5.86 24.7032 5.99231 24.7155C6.12461 24.7278 6.24662 24.7922 6.33149 24.8944C6.41636 24.9966 6.45714 25.1284 6.44486 25.2607C6.43257 25.393 6.36823 25.515 6.26599 25.5999C5.87774 25.9217 5.57706 26.3364 5.39182 26.8054C5.20659 27.2744 5.14281 27.7827 5.20639 28.2829C5.26998 28.7832 5.45887 29.2593 5.75556 29.6671C6.05224 30.0749 6.4471 30.4011 6.90351 30.6156C7.35993 30.83 7.86311 30.9257 8.36639 30.8938C8.86966 30.862 9.35674 30.7035 9.78242 30.4331C10.2081 30.1627 10.5586 29.7893 10.8015 29.3473C11.0443 28.9053 11.1716 28.4092 11.1715 27.9049C11.1728 27.6288 11.1327 27.3541 11.0525 27.0899C11.0135 26.9631 11.0265 26.8259 11.0886 26.7087C11.1507 26.5914 11.2569 26.5036 11.3837 26.4646C11.5106 26.4257 11.6477 26.4387 11.765 26.5008C11.8822 26.5629 11.97 26.669 12.009 26.7959C12.1179 27.1554 12.1727 27.5292 12.1715 27.9049C12.1702 28.9641 11.7488 29.9796 10.9997 30.7285C10.2507 31.4774 9.23521 31.8987 8.17599 31.8999Z" />
		<path
			d="M15.4815 14.946H13.387C13.2544 14.946 13.1272 14.8934 13.0335 14.7996C12.9397 14.7058 12.887 14.5787 12.887 14.446C12.887 14.3134 12.9397 14.1863 13.0335 14.0925C13.1272 13.9987 13.2544 13.946 13.387 13.946H15.4815C15.6141 13.946 15.7413 13.9987 15.8351 14.0925C15.9288 14.1863 15.9815 14.3134 15.9815 14.446C15.9815 14.5787 15.9288 14.7058 15.8351 14.7996C15.7413 14.8934 15.6141 14.946 15.4815 14.946Z" />
	</symbol>

	<symbol id="tab3" viewBox="0 0 40 40">
		<path
			d="M24.1 28.7095H16.0155C15.8829 28.7095 15.7557 28.6568 15.6619 28.563C15.5682 28.4693 15.5155 28.3421 15.5155 28.2095C15.5155 28.0769 15.5682 27.9497 15.6619 27.8559C15.7557 27.7622 15.8829 27.7095 16.0155 27.7095H24.1C24.2326 27.7095 24.3598 27.7622 24.4536 27.8559C24.5473 27.9497 24.6 28.0769 24.6 28.2095C24.6 28.3421 24.5473 28.4693 24.4536 28.563C24.3598 28.6568 24.2326 28.7095 24.1 28.7095Z" />
		<path
			d="M8.51798 28.7095H4.05798C3.92538 28.7095 3.7982 28.6569 3.70443 28.5631C3.61066 28.4693 3.55798 28.3421 3.55798 28.2095V21.6545C3.55798 21.5219 3.61066 21.3948 3.70443 21.301C3.7982 21.2072 3.92538 21.1545 4.05798 21.1545H22.4155C22.5481 21.1545 22.6753 21.2072 22.769 21.301C22.8628 21.3948 22.9155 21.5219 22.9155 21.6545C22.9155 21.7871 22.8628 21.9143 22.769 22.0081C22.6753 22.1019 22.5481 22.1545 22.4155 22.1545H4.55798V27.7095H8.51798C8.65059 27.7095 8.77777 27.7622 8.87154 27.856C8.9653 27.9498 9.01798 28.0769 9.01798 28.2095C9.01798 28.3421 8.9653 28.4693 8.87154 28.5631C8.77777 28.6569 8.65059 28.7095 8.51798 28.7095Z" />
		<path
			d="M36 28.7096H31.6C31.4674 28.7096 31.3402 28.6569 31.2465 28.5632C31.1527 28.4694 31.1 28.3422 31.1 28.2096C31.1 28.077 31.1527 27.9498 31.2465 27.856C31.3402 27.7623 31.4674 27.7096 31.6 27.7096H35.5V21.0596C35.5 20.2406 34.9415 19.7121 33.8385 19.4871L31.129 18.9871C31.0221 18.9675 30.9245 18.9136 30.851 18.8336C30.7775 18.7536 30.732 18.6518 30.7215 18.5436L30.2215 13.3401C30.2258 13.1444 30.1911 12.9497 30.1196 12.7675C30.048 12.5853 29.941 12.4191 29.8047 12.2785C29.6684 12.138 29.5056 12.0259 29.3257 11.9487C29.1458 11.8716 28.9523 11.8309 28.7565 11.8291H22.4155C22.2829 11.8291 22.1557 11.7764 22.062 11.6827C21.9682 11.5889 21.9155 11.4617 21.9155 11.3291C21.9155 11.1965 21.9682 11.0693 22.062 10.9755C22.1557 10.8818 22.2829 10.8291 22.4155 10.8291H28.7545C29.4075 10.8299 30.0335 11.0896 30.4953 11.5514C30.957 12.0131 31.2167 12.6391 31.2175 13.2921L31.6795 18.0721L34.0295 18.5041C35.625 18.8326 36.5 19.7391 36.5 21.0611V28.2111C36.4996 28.3435 36.4468 28.4702 36.3531 28.5637C36.2593 28.6571 36.1324 28.7096 36 28.7096Z" />
		<path
			d="M22.4155 22.1546C22.2829 22.1546 22.1557 22.1019 22.062 22.0081C21.9682 21.9144 21.9155 21.7872 21.9155 21.6546V12.6946C21.9155 12.562 21.9682 12.4348 22.062 12.341C22.1557 12.2473 22.2829 12.1946 22.4155 12.1946C22.5481 12.1946 22.6753 12.2473 22.7691 12.341C22.8628 12.4348 22.9155 12.562 22.9155 12.6946V21.6546C22.9155 21.7872 22.8628 21.9144 22.7691 22.0081C22.6753 22.1019 22.5481 22.1546 22.4155 22.1546Z" />
		<path
			d="M22.416 22.153H4C3.86739 22.153 3.74021 22.1004 3.64645 22.0066C3.55268 21.9128 3.5 21.7856 3.5 21.653V8.04053C3.5 7.90792 3.55268 7.78074 3.64645 7.68697C3.74021 7.59321 3.86739 7.54053 4 7.54053H22.415C22.5476 7.54053 22.6748 7.59321 22.7686 7.68697C22.8623 7.78074 22.915 7.90792 22.915 8.04053V21.653C22.915 21.7855 22.8625 21.9125 22.7689 22.0062C22.6754 22.1 22.5484 22.1528 22.416 22.153ZM4.5 21.153H21.915V8.54053H4.5V21.153Z" />
		<path
			d="M12.2635 32.4595C11.4229 32.4595 10.6012 32.2102 9.90232 31.7432C9.20341 31.2762 8.65868 30.6125 8.337 29.8359C8.01533 29.0593 7.93117 28.2048 8.09515 27.3803C8.25914 26.5559 8.66391 25.7986 9.25829 25.2043C9.85266 24.6099 10.6099 24.2051 11.4344 24.0411C12.2588 23.8771 13.1133 23.9613 13.8899 24.283C14.6665 24.6047 15.3302 25.1494 15.7972 25.8483C16.2642 26.5472 16.5135 27.3689 16.5135 28.2095C16.512 29.3362 16.0638 30.4164 15.2671 31.2131C14.4704 32.0098 13.3902 32.458 12.2635 32.4595ZM12.2635 24.9595C11.6207 24.9595 10.9923 25.1501 10.4579 25.5072C9.92343 25.8643 9.50687 26.3719 9.26088 26.9658C9.0149 27.5596 8.95054 28.2131 9.07594 28.8435C9.20134 29.474 9.51087 30.0531 9.96539 30.5076C10.4199 30.9621 10.999 31.2716 11.6294 31.397C12.2599 31.5224 12.9134 31.4581 13.5072 31.2121C14.1011 30.9661 14.6087 30.5495 14.9658 30.0151C15.3229 29.4806 15.5135 28.8523 15.5135 28.2095C15.5124 27.3478 15.1697 26.5218 14.5604 25.9125C13.9512 25.3033 13.1251 24.9605 12.2635 24.9595Z" />
		<path
			d="M12.2635 30.3345C11.8432 30.3345 11.4324 30.2098 11.0829 29.9763C10.7334 29.7428 10.4611 29.411 10.3002 29.0227C10.1394 28.6344 10.0973 28.2071 10.1793 27.7949C10.2613 27.3827 10.4637 27.0041 10.7609 26.7069C11.0581 26.4097 11.4367 26.2073 11.8489 26.1253C12.2611 26.0433 12.6884 26.0854 13.0767 26.2462C13.465 26.4071 13.7969 26.6794 14.0304 27.0289C14.2639 27.3783 14.3885 27.7892 14.3885 28.2095C14.3878 28.7729 14.1637 29.313 13.7654 29.7113C13.367 30.1097 12.8269 30.3338 12.2635 30.3345ZM12.2635 27.0845C12.041 27.0845 11.8235 27.1505 11.6385 27.2741C11.4535 27.3977 11.3093 27.5734 11.2241 27.779C11.139 27.9845 11.1167 28.2107 11.1601 28.4289C11.2035 28.6472 11.3107 28.8476 11.468 29.005C11.6253 29.1623 11.8258 29.2694 12.044 29.3129C12.2622 29.3563 12.4884 29.334 12.694 29.2488C12.8996 29.1637 13.0753 29.0195 13.1989 28.8345C13.3225 28.6495 13.3885 28.432 13.3885 28.2095C13.3881 27.9112 13.2694 27.6253 13.0585 27.4144C12.8477 27.2035 12.5617 27.0849 12.2635 27.0845Z" />
		<path
			d="M27.85 30.3345C27.4297 30.3345 27.0188 30.2098 26.6694 29.9763C26.3199 29.7428 26.0476 29.411 25.8867 29.0227C25.7259 28.6344 25.6838 28.2071 25.7658 27.7949C25.8478 27.3827 26.0502 27.0041 26.3474 26.7069C26.6446 26.4097 27.0232 26.2073 27.4354 26.1253C27.8476 26.0433 28.2749 26.0854 28.6632 26.2462C29.0515 26.4071 29.3834 26.6794 29.6168 27.0289C29.8503 27.3783 29.975 27.7892 29.975 28.2095C29.9744 28.7729 29.7504 29.3131 29.352 29.7115C28.9536 30.1099 28.4134 30.3339 27.85 30.3345ZM27.85 27.0845C27.6275 27.0845 27.41 27.1505 27.225 27.2741C27.04 27.3977 26.8958 27.5734 26.8106 27.779C26.7255 27.9845 26.7032 28.2107 26.7466 28.4289C26.79 28.6472 26.8971 28.8476 27.0545 29.005C27.2118 29.1623 27.4123 29.2694 27.6305 29.3129C27.8487 29.3563 28.0749 29.334 28.2805 29.2488C28.4861 29.1637 28.6618 29.0195 28.7854 28.8345C28.909 28.6495 28.975 28.432 28.975 28.2095C28.9746 27.9112 28.8559 27.6253 28.645 27.4144C28.4341 27.2035 28.1482 27.0849 27.85 27.0845Z" />
		<path
			d="M27.85 32.4595C27.0094 32.4595 26.1877 32.2102 25.4888 31.7432C24.7899 31.2762 24.2452 30.6125 23.9235 29.8359C23.6018 29.0593 23.5177 28.2048 23.6816 27.3803C23.8456 26.5559 24.2504 25.7986 24.8448 25.2043C25.4391 24.6099 26.1964 24.2051 27.0208 24.0411C27.8453 23.8771 28.6998 23.9613 29.4764 24.283C30.253 24.6047 30.9167 25.1494 31.3837 25.8483C31.8507 26.5472 32.1 27.3689 32.1 28.2095C32.0985 29.3362 31.6503 30.4164 30.8536 31.2131C30.0569 32.0098 28.9767 32.458 27.85 32.4595ZM27.85 24.9595C27.2072 24.9595 26.5788 25.1501 26.0444 25.5072C25.5099 25.8643 25.0934 26.3719 24.8474 26.9658C24.6014 27.5596 24.537 28.2131 24.6624 28.8435C24.7878 29.474 25.0974 30.0531 25.5519 30.5076C26.0064 30.9621 26.5855 31.2716 27.2159 31.397C27.8464 31.5224 28.4998 31.4581 29.0937 31.2121C29.6876 30.9661 30.1951 30.5495 30.5523 30.0151C30.9094 29.4806 31.1 28.8523 31.1 28.2095C31.0989 27.3478 30.7562 26.5218 30.1469 25.9125C29.5376 25.3033 28.7116 24.9605 27.85 24.9595Z" />
		<path
			d="M29.2075 18.05H24.304C24.1714 18.05 24.0442 17.9973 23.9505 17.9036C23.8567 17.8098 23.804 17.6826 23.804 17.55V13.6145C23.804 13.4819 23.8567 13.3547 23.9505 13.2609C24.0442 13.1672 24.1714 13.1145 24.304 13.1145H28.404C28.5192 13.1146 28.6308 13.1544 28.72 13.2273C28.8092 13.3002 28.8705 13.4016 28.8935 13.5145L29.7 17.45C29.7148 17.5227 29.7133 17.5977 29.6956 17.6697C29.6778 17.7417 29.6443 17.8088 29.5974 17.8663C29.5505 17.9237 29.4914 17.97 29.4244 18.0018C29.3574 18.0335 29.2842 18.05 29.21 18.05H29.2075ZM24.804 17.05H28.595L27.995 14.1125H24.804V17.05Z" />
		<path
			d="M36 25.8855H34.166C34.0334 25.8855 33.9062 25.8329 33.8125 25.7391C33.7187 25.6453 33.666 25.5182 33.666 25.3855V22.55C33.666 22.4174 33.7187 22.2903 33.8125 22.1965C33.9062 22.1027 34.0334 22.05 34.166 22.05H36C36.1326 22.05 36.2598 22.1027 36.3536 22.1965C36.4473 22.2903 36.5 22.4174 36.5 22.55V25.3835C36.5003 25.4494 36.4875 25.5146 36.4625 25.5755C36.4375 25.6364 36.4007 25.6918 36.3543 25.7384C36.3078 25.785 36.2526 25.822 36.1918 25.8473C36.131 25.8726 36.0658 25.8856 36 25.8855ZM34.667 24.8855H35.5V23.05H34.666L34.667 24.8855Z" />
		<path
			d="M28.228 22.458H25.75C25.5558 22.458 25.3634 22.4197 25.184 22.3454C25.0046 22.2711 24.8415 22.1621 24.7042 22.0248C24.5668 21.8875 24.4579 21.7244 24.3836 21.545C24.3093 21.3655 24.271 21.1732 24.271 20.979C24.271 20.7848 24.3093 20.5925 24.3836 20.413C24.4579 20.2336 24.5668 20.0705 24.7042 19.9332C24.8415 19.7959 25.0046 19.6869 25.184 19.6126C25.3634 19.5383 25.5558 19.5 25.75 19.5H28.226C28.4202 19.5 28.6125 19.5383 28.792 19.6126C28.9714 19.6869 29.1345 19.7959 29.2718 19.9332C29.4091 20.0705 29.5181 20.2336 29.5924 20.413C29.6667 20.5925 29.705 20.7848 29.705 20.979C29.705 21.1732 29.6667 21.3655 29.5924 21.545C29.5181 21.7244 29.4091 21.8875 29.2718 22.0248C29.1345 22.1621 28.9714 22.2711 28.792 22.3454C28.6125 22.4197 28.4202 22.458 28.226 22.458H28.228ZM25.75 20.5C25.623 20.5 25.5011 20.5505 25.4113 20.6403C25.3215 20.7301 25.271 20.852 25.271 20.979C25.271 21.106 25.3215 21.2279 25.4113 21.3177C25.5011 21.4075 25.623 21.458 25.75 21.458H28.226C28.353 21.458 28.4749 21.4075 28.5647 21.3177C28.6545 21.2279 28.705 21.106 28.705 20.979C28.705 20.852 28.6545 20.7301 28.5647 20.6403C28.4749 20.5505 28.353 20.5 28.226 20.5H25.75Z" />
	</symbol>

	<symbol id="tab4" viewBox="0 0 40 40">
		<path
			d="M24.2706 26.7461H14.0966C13.9639 26.7461 13.8368 26.6934 13.743 26.5996C13.6492 26.5059 13.5966 26.3787 13.5966 26.2461C13.5966 26.1135 13.6492 25.9863 13.743 25.8925C13.8368 25.7988 13.9639 25.7461 14.0966 25.7461H24.2706C24.4032 25.7461 24.5303 25.7988 24.6241 25.8925C24.7179 25.9863 24.7706 26.1135 24.7706 26.2461C24.7706 26.3787 24.7179 26.5059 24.6241 26.5996C24.5303 26.6934 24.4032 26.7461 24.2706 26.7461Z" />
		<path
			d="M6.66606 26.7775C5.85498 26.8185 5.05755 26.5571 4.42806 26.044C3.94107 25.6056 3.64407 24.9948 3.60006 24.341C3.09206 19.9565 4.65006 12.712 4.71506 12.406C4.84736 11.8315 5.16956 11.3184 5.62957 10.9497C6.08958 10.5809 6.66052 10.3781 7.25006 10.374L28.1076 10.421C29.3621 10.3845 29.8651 10.993 29.9861 11.1765L35.3561 18.232C36.3401 19.1 36.3171 20.5595 36.2851 21C36.565 22.0612 36.5588 23.1775 36.2671 24.2355C36.208 24.8575 35.9432 25.4421 35.5146 25.8967C35.086 26.3513 34.518 26.65 33.9006 26.7455H29.9696C29.837 26.7455 29.7098 26.6928 29.616 26.5991C29.5222 26.5053 29.4696 26.3781 29.4696 26.2455C29.4696 26.1129 29.5222 25.9857 29.616 25.892C29.7098 25.7982 29.837 25.7455 29.9696 25.7455H33.8246C34.0211 25.718 35.0636 25.504 35.2831 24.052C35.2864 24.0302 35.2913 24.0087 35.2976 23.9875C35.548 23.0873 35.5518 22.1362 35.3086 21.234C35.2809 21.1593 35.2715 21.0791 35.2811 21C35.2811 20.9875 35.4406 19.606 34.6716 18.9625C34.6429 18.9384 34.6169 18.9113 34.5941 18.8815L29.1791 11.7655C29.1649 11.7468 29.152 11.727 29.1406 11.7065C29.1406 11.7065 28.9111 11.388 28.1256 11.421L7.25906 11.374C6.89815 11.3812 6.54953 11.5064 6.26647 11.7304C5.98341 11.9544 5.78149 12.2649 5.69156 12.6145C5.67506 12.6915 4.10356 20.0075 4.59556 24.273C4.62196 24.6706 4.80436 25.0417 5.10306 25.3055C5.55306 25.6945 6.25956 25.843 7.21006 25.7485L8.39706 25.746C8.52967 25.746 8.65684 25.7987 8.75061 25.8925C8.84438 25.9862 8.89706 26.1134 8.89706 26.246C8.89706 26.3786 8.84438 26.5058 8.75061 26.5996C8.65684 26.6933 8.52967 26.746 8.39706 26.746H7.26006C7.06272 26.7666 6.86447 26.7771 6.66606 26.7775Z" />
		<path
			d="M35.757 24.7355H33.4355C33.0857 24.7352 32.7503 24.5962 32.5029 24.3489C32.2555 24.1016 32.1164 23.7662 32.116 23.4165V22.009C32.1164 21.6591 32.2555 21.3237 32.5029 21.0764C32.7502 20.829 33.0856 20.6899 33.4355 20.6895H35.818C35.9506 20.6895 36.0778 20.7421 36.1715 20.8359C36.2653 20.9297 36.318 21.0568 36.318 21.1895C36.318 21.3221 36.2653 21.4492 36.1715 21.543C36.0778 21.6368 35.9506 21.6895 35.818 21.6895H33.4355C33.3508 21.6896 33.2696 21.7233 33.2097 21.7832C33.1498 21.8431 33.1161 21.9243 33.116 22.009V23.4165C33.1161 23.5011 33.1498 23.5822 33.2097 23.642C33.2696 23.7019 33.3508 23.7355 33.4355 23.7355H35.757C35.8896 23.7355 36.0168 23.7881 36.1105 23.8819C36.2043 23.9757 36.257 24.1028 36.257 24.2355C36.257 24.3681 36.2043 24.4952 36.1105 24.589C36.0168 24.6828 35.8896 24.7355 35.757 24.7355Z" />
		<path
			d="M24.45 20.05H22.772C22.6394 20.05 22.5122 19.9974 22.4184 19.9036C22.3247 19.8098 22.272 19.6827 22.272 19.55C22.272 19.4174 22.3247 19.2903 22.4184 19.1965C22.5122 19.1027 22.6394 19.05 22.772 19.05H24.45C24.5826 19.05 24.7098 19.1027 24.8035 19.1965C24.8973 19.2903 24.95 19.4174 24.95 19.55C24.95 19.6827 24.8973 19.8098 24.8035 19.9036C24.7098 19.9974 24.5826 20.05 24.45 20.05Z" />
		<path
			d="M27.1225 27.9265C26.7962 27.9265 26.4772 27.8297 26.2058 27.6484C25.9345 27.4671 25.723 27.2094 25.5981 26.9079C25.4732 26.6064 25.4406 26.2746 25.5042 25.9546C25.5679 25.6345 25.7251 25.3405 25.9558 25.1097C26.1866 24.879 26.4806 24.7218 26.8006 24.6582C27.1207 24.5945 27.4525 24.6272 27.754 24.7521C28.0555 24.8769 28.3132 25.0884 28.4945 25.3598C28.6758 25.6311 28.7725 25.9501 28.7725 26.2765C28.7725 26.7141 28.5987 27.1338 28.2893 27.4432C27.9798 27.7526 27.5601 27.9265 27.1225 27.9265ZM27.1225 25.6265C26.994 25.6265 26.8683 25.6646 26.7614 25.736C26.6545 25.8074 26.5712 25.9089 26.522 26.0277C26.4728 26.1465 26.4599 26.2772 26.485 26.4033C26.5101 26.5294 26.572 26.6452 26.6629 26.7361C26.7538 26.827 26.8696 26.8889 26.9957 26.914C27.1218 26.9391 27.2525 26.9262 27.3713 26.877C27.4901 26.8278 27.5916 26.7445 27.663 26.6376C27.7344 26.5307 27.7725 26.405 27.7725 26.2765C27.7727 26.191 27.7559 26.1064 27.7233 26.0274C27.6907 25.9484 27.6429 25.8767 27.5825 25.8162C27.5221 25.7557 27.4504 25.7078 27.3715 25.675C27.2926 25.6423 27.208 25.6255 27.1225 25.6255V25.6265Z" />
		<path
			d="M11.25 27.9265C10.9236 27.9265 10.6046 27.8297 10.3333 27.6484C10.0619 27.4671 9.85046 27.2094 9.72557 26.9079C9.60069 26.6064 9.56802 26.2746 9.63168 25.9546C9.69535 25.6345 9.85249 25.3405 10.0833 25.1097C10.314 24.879 10.608 24.7218 10.9281 24.6582C11.2481 24.5945 11.5799 24.6272 11.8814 24.7521C12.1829 24.8769 12.4406 25.0884 12.6219 25.3598C12.8032 25.6311 12.9 25.9501 12.9 26.2765C12.9 26.7141 12.7261 27.1338 12.4167 27.4432C12.1073 27.7526 11.6876 27.9265 11.25 27.9265ZM11.25 25.6265C11.1214 25.6265 10.9957 25.6646 10.8889 25.736C10.782 25.8074 10.6987 25.9089 10.6495 26.0277C10.6003 26.1465 10.5874 26.2772 10.6125 26.4033C10.6375 26.5294 10.6995 26.6452 10.7904 26.7361C10.8813 26.827 10.9971 26.8889 11.1232 26.914C11.2493 26.9391 11.3799 26.9262 11.4987 26.877C11.6175 26.8278 11.719 26.7445 11.7904 26.6376C11.8619 26.5307 11.9 26.405 11.9 26.2765C11.9001 26.191 11.8834 26.1064 11.8508 26.0274C11.8182 25.9484 11.7703 25.8767 11.7099 25.8162C11.6496 25.7557 11.5779 25.7078 11.499 25.675C11.42 25.6423 11.3354 25.6255 11.25 25.6255V25.6265Z" />
		<path
			d="M27.1225 29.626C26.4599 29.626 25.8122 29.4296 25.2613 29.0614C24.7104 28.6933 24.281 28.1701 24.0275 27.558C23.7739 26.9459 23.7076 26.2723 23.8368 25.6225C23.9661 24.9726 24.2851 24.3757 24.7537 23.9072C25.2222 23.4387 25.8191 23.1197 26.4689 22.9904C27.1187 22.8611 27.7923 22.9275 28.4045 23.181C29.0166 23.4346 29.5398 23.864 29.9079 24.4149C30.276 24.9658 30.4725 25.6135 30.4725 26.276C30.4714 27.1642 30.1181 28.0156 29.4901 28.6437C28.8621 29.2717 28.0106 29.625 27.1225 29.626ZM27.1225 23.926C26.6577 23.926 26.2033 24.0639 25.8169 24.3221C25.4304 24.5803 25.1292 24.9473 24.9513 25.3767C24.7735 25.8061 24.7269 26.2786 24.8176 26.7345C24.9083 27.1903 25.1321 27.6091 25.4608 27.9377C25.7894 28.2664 26.2081 28.4902 26.664 28.5809C27.1199 28.6715 27.5924 28.625 28.0218 28.4471C28.4512 28.2693 28.8182 27.9681 29.0764 27.5816C29.3346 27.1952 29.4725 26.7408 29.4725 26.276C29.4717 25.653 29.2238 25.0556 28.7833 24.615C28.3428 24.1744 27.7455 23.9265 27.1225 23.9255V23.926Z" />
		<path
			d="M11.25 29.626C10.5875 29.626 9.93977 29.4296 9.38887 29.0614C8.83796 28.6933 8.40858 28.1701 8.15503 27.558C7.90148 26.9459 7.83513 26.2723 7.9644 25.6225C8.09366 24.9726 8.41271 24.3757 8.88122 23.9072C9.34972 23.4387 9.94664 23.1197 10.5965 22.9904C11.2463 22.8611 11.9199 22.9275 12.532 23.181C13.1441 23.4346 13.6673 23.864 14.0354 24.4149C14.4036 24.9658 14.6 25.6135 14.6 26.276C14.599 27.1642 14.2457 28.0156 13.6177 28.6437C12.9896 29.2717 12.1382 29.625 11.25 29.626ZM11.25 23.926C10.7852 23.926 10.3309 24.0639 9.94444 24.3221C9.55798 24.5803 9.25678 24.9473 9.07891 25.3767C8.90104 25.8061 8.8545 26.2786 8.94518 26.7345C9.03586 27.1903 9.25967 27.6091 9.58832 27.9377C9.91698 28.2664 10.3357 28.4902 10.7916 28.5809C11.2474 28.6715 11.7199 28.625 12.1493 28.4471C12.5787 28.2693 12.9458 27.9681 13.204 27.5816C13.4622 27.1952 13.6 26.7408 13.6 26.276C13.5992 25.653 13.3514 25.0556 12.9109 24.615C12.4704 24.1744 11.8731 23.9265 11.25 23.9255V23.926Z" />
		<path
			d="M34.159 17.982H8.98154C8.77545 17.9821 8.57176 17.9376 8.38443 17.8517C8.1971 17.7658 8.03054 17.6404 7.89617 17.4842C7.76179 17.3279 7.66277 17.1444 7.60588 16.9463C7.54898 16.7483 7.53557 16.5402 7.56654 16.3365L8.40454 10.8C8.41325 10.7341 8.43501 10.6706 8.46855 10.6132C8.50209 10.5558 8.54674 10.5057 8.59987 10.4657C8.65301 10.4258 8.71358 10.3969 8.77803 10.3806C8.84248 10.3644 8.90953 10.3612 8.97524 10.3711C9.04096 10.3811 9.10403 10.4041 9.16076 10.4387C9.21749 10.4734 9.26675 10.5189 9.30565 10.5728C9.34455 10.6267 9.37232 10.6878 9.38732 10.7526C9.40233 10.8174 9.40427 10.8844 9.39304 10.95L8.55504 16.486C8.54585 16.5474 8.54999 16.61 8.56719 16.6697C8.58439 16.7293 8.61424 16.7845 8.65472 16.8316C8.69519 16.8787 8.74534 16.9165 8.80174 16.9424C8.85814 16.9684 8.91946 16.9819 8.98154 16.982H34.159C34.2917 16.982 34.4188 17.0346 34.5126 17.1284C34.6064 17.2222 34.659 17.3493 34.659 17.482C34.659 17.6146 34.6064 17.7417 34.5126 17.8355C34.4188 17.9293 34.2917 17.982 34.159 17.982Z" />
		<path
			d="M25.2081 17.9825C25.1016 17.9826 24.9978 17.9487 24.9119 17.8857C24.826 17.8228 24.7625 17.734 24.7306 17.6325L22.6891 11.0585C22.6497 10.9318 22.6622 10.7946 22.724 10.6772C22.7857 10.5597 22.8916 10.4716 23.0183 10.4322C23.145 10.3928 23.2822 10.4054 23.3996 10.4671C23.5171 10.5289 23.6052 10.6348 23.6446 10.7615L25.6861 17.3335C25.7056 17.3962 25.7125 17.4622 25.7065 17.5276C25.7005 17.593 25.6816 17.6566 25.651 17.7147C25.6204 17.7729 25.5787 17.8244 25.5281 17.8664C25.4776 17.9084 25.4193 17.94 25.3566 17.9595C25.3085 17.9747 25.2584 17.9824 25.2081 17.9825Z" />
		<path
			d="M16.4165 17.982C16.2839 17.982 16.1567 17.9293 16.063 17.8355C15.9692 17.7418 15.9165 17.6146 15.9165 17.482V10.8765C15.9165 10.7439 15.9692 10.6167 16.063 10.5229C16.1567 10.4291 16.2839 10.3765 16.4165 10.3765C16.5491 10.3765 16.6763 10.4291 16.7701 10.5229C16.8638 10.6167 16.9165 10.7439 16.9165 10.8765V17.482C16.9165 17.6146 16.8638 17.7418 16.7701 17.8355C16.6763 17.9293 16.5491 17.982 16.4165 17.982Z" />
		<path
			d="M6.395 23.45H4.005C3.8724 23.45 3.74522 23.3973 3.65145 23.3035C3.55768 23.2097 3.505 23.0826 3.505 22.95C3.505 22.8173 3.55768 22.6902 3.65145 22.5964C3.74522 22.5026 3.8724 22.45 4.005 22.45H5.895V19.075H4.23C4.0974 19.075 3.97022 19.0223 3.87645 18.9285C3.78268 18.8347 3.73 18.7076 3.73 18.575C3.73 18.4423 3.78268 18.3152 3.87645 18.2214C3.97022 18.1276 4.0974 18.075 4.23 18.075H6.395C6.52761 18.075 6.65479 18.1276 6.74856 18.2214C6.84233 18.3152 6.895 18.4423 6.895 18.575V22.95C6.895 23.0826 6.84233 23.2097 6.74856 23.3035C6.65479 23.3973 6.52761 23.45 6.395 23.45Z" />
		<path
			d="M6.39505 21.262H4.05005C3.91744 21.262 3.79026 21.2093 3.6965 21.1155C3.60273 21.0217 3.55005 20.8946 3.55005 20.762C3.55005 20.6294 3.60273 20.5022 3.6965 20.4084C3.79026 20.3146 3.91744 20.262 4.05005 20.262H6.39505C6.52766 20.262 6.65483 20.3146 6.7486 20.4084C6.84237 20.5022 6.89505 20.6294 6.89505 20.762C6.89505 20.8946 6.84237 21.0217 6.7486 21.1155C6.65483 21.2093 6.52766 21.262 6.39505 21.262Z" />
	</symbol>

	<symbol id="phone" viewBox="0 0 15 15">
		<path
			d="M6.21144 8.78848C4.77971 7.35676 4.45644 5.92503 4.38351 5.35141C4.36313 5.1928 4.41771 5.03374 4.53118 4.92107L5.6898 3.76296C5.86024 3.59263 5.89048 3.32718 5.76273 3.12288L3.91799 0.258395C3.77666 0.0321659 3.48647 -0.0494823 3.2479 0.0698602L0.286439 1.4646C0.0935229 1.55959 -0.0199475 1.76456 0.00195594 1.97848C0.157128 3.45262 0.799801 7.07641 4.36101 10.6379C7.92221 14.1993 11.5455 14.8418 13.0204 14.9969C13.2343 15.0188 13.4393 14.9054 13.5343 14.7124L14.929 11.751C15.0479 11.5129 14.9668 11.2235 14.7415 11.0819L11.877 9.2377C11.6729 9.10982 11.4074 9.13985 11.237 9.31012L10.0789 10.4687C9.96617 10.5822 9.80711 10.6368 9.64851 10.6164C9.07489 10.5435 7.64316 10.2202 6.21144 8.78848V8.78848Z" />
		<path
			d="M11.8967 8.01746C11.611 8.01746 11.3795 7.78588 11.3795 7.50022C11.377 5.35874 9.64163 3.62333 7.50015 3.62091C7.21449 3.62091 6.98291 3.38933 6.98291 3.10367C6.98291 2.818 7.21449 2.58643 7.50015 2.58643C10.2127 2.58942 12.411 4.78765 12.4139 7.50022C12.4139 7.78588 12.1824 8.01746 11.8967 8.01746Z" />
		<path
			d="M14.4829 8.01724C14.1973 8.01724 13.9657 7.78567 13.9657 7.5C13.9617 3.93085 11.0693 1.03847 7.50015 1.03448C7.21449 1.03448 6.98291 0.802906 6.98291 0.517241C6.98291 0.231577 7.21449 0 7.50015 0C11.6404 0.004561 14.9956 3.35976 15.0002 7.5C15.0002 7.63718 14.9457 7.76874 14.8487 7.86575C14.7517 7.96275 14.6201 8.01724 14.4829 8.01724Z" />
	</symbol>

	<symbol id="mail" viewBox="0 0 14 14">
		<path
			d="M13.8765 2.78125L9.63062 6.99982L13.8765 11.2184C13.9533 11.058 13.9998 10.8806 13.9998 10.6912V3.30841C13.9998 3.119 13.9533 2.94168 13.8765 2.78125Z" />
		<path
			d="M12.7693 2.07812H1.23029C1.04088 2.07812 0.863551 2.12469 0.703125 2.20145L6.12985 7.60083C6.60968 8.08066 7.38996 8.08066 7.86979 7.60083L13.2965 2.20145C13.1361 2.12469 12.9588 2.07812 12.7693 2.07812Z" />
		<path
			d="M0.12332 2.78125C0.0465664 2.94168 0 3.119 0 3.30841V10.6912C0 10.8806 0.0465664 11.058 0.12332 11.2184L4.36923 6.99982L0.12332 2.78125Z" />
		<path
			d="M9.0506 7.58008L8.44977 8.1809C7.65027 8.9804 6.34934 8.9804 5.54983 8.1809L4.94904 7.58008L0.703125 11.7986C0.863551 11.8754 1.04088 11.922 1.23029 11.922H12.7693C12.9588 11.922 13.1361 11.8754 13.2965 11.7986L9.0506 7.58008Z" />
	</symbol>

	<symbol id="location" viewBox="0 0 30 30">
		<path
			d="M15.0001 0C9.0092 0 4.13525 4.87395 4.13525 10.8648C4.13525 18.2997 13.8582 29.2144 14.2722 29.6755C14.661 30.1085 15.3399 30.1078 15.728 29.6755C16.142 29.2144 25.865 18.2997 25.865 10.8648C25.8649 4.87395 20.991 0 15.0001 0ZM15.0001 16.3312C11.9859 16.3312 9.53379 13.879 9.53379 10.8648C9.53379 7.85063 11.986 5.39848 15.0001 5.39848C18.0142 5.39848 20.4664 7.85068 20.4664 10.8649C20.4664 13.879 18.0142 16.3312 15.0001 16.3312Z" />
	</symbol>

	<symbol id="arrow-bottom" viewBox="0 0 12 8">
		<path d="M1 1L6 6L11 1" stroke-width="2" />
	</symbol>

	<symbol id="close" viewBox="0 0 20 20">
        <path d="M1 1L19 19"/>
        <path d="M19 1L0.999999 19"/>
    </symbol>
</svg>