<svg width="26" height="26" viewBox="0 0 26 26" fill="none" xmlns="http://www.w3.org/2000/svg">
<path d="M24.3027 11.1718L19.2416 16.1053L20.4368 23.0733C20.4888 23.378 20.3637 23.686 20.1134 23.868C19.9721 23.9712 19.8039 24.0232 19.6357 24.0232C19.5065 24.0232 19.3765 23.9923 19.2579 23.9297L13 20.6399L6.74294 23.9289C6.46994 24.0735 6.13763 24.05 5.88738 23.8672C5.63713 23.6852 5.51201 23.3772 5.56401 23.0725L6.75919 16.1045L1.69732 11.1718C1.47632 10.9557 1.39588 10.6323 1.49176 10.339C1.58763 10.0457 1.84194 9.83041 2.14826 9.78572L9.14307 8.7701L12.2712 2.43097C12.545 1.87604 13.455 1.87604 13.7288 2.43097L16.8569 8.7701L23.8518 9.78572C24.1581 9.83041 24.4124 10.0449 24.5083 10.339C24.6041 10.6332 24.5237 10.9549 24.3027 11.1718Z" fill="#0D734C"/>
</svg>
