<svg width="26" height="26" viewBox="0 0 26 26" fill="none" xmlns="http://www.w3.org/2000/svg">
<path d="M24.5083 10.3383C24.4124 10.0442 24.1581 9.82968 23.8518 9.78499L16.857 8.76937L13.7288 2.43024C13.455 1.8753 12.545 1.8753 12.2712 2.43024L9.14308 8.76937L2.14827 9.78499C1.84196 9.82968 1.58765 10.0442 1.49177 10.3383C1.3959 10.6324 1.47552 10.955 1.69733 11.1711L6.7584 16.1046L5.56321 23.0726C5.51121 23.3773 5.63633 23.6852 5.88658 23.8672C6.13765 24.0509 6.46915 24.0736 6.74215 23.929L13 20.64L19.2571 23.929C19.3757 23.9916 19.5057 24.0224 19.6349 24.0224C19.8031 24.0224 19.9713 23.9704 20.1126 23.8672C20.3629 23.6852 20.488 23.3773 20.436 23.0726L19.2408 16.1046L24.3019 11.1711C24.5237 10.955 24.6033 10.6324 24.5083 10.3383ZM17.8003 15.2401C17.6093 15.4262 17.5216 15.6959 17.5663 15.9592L18.5551 21.7255L13.377 19.0036C13.26 18.9411 13.13 18.9094 13 18.9094C12.87 18.9094 12.74 18.9402 12.6222 19.0028L7.44415 21.7247L8.43296 15.9584C8.47765 15.6951 8.39071 15.4262 8.19896 15.2393L4.01052 11.1565L9.79877 10.3156C10.0636 10.2774 10.292 10.1108 10.4106 9.87112L13 4.62562L15.5886 9.87112C15.7073 10.1108 15.9356 10.2774 16.2005 10.3156L21.9887 11.1565L17.8003 15.2401Z" fill="#0D734C"/>
</svg>
